<svg viewBox="0 0 20 21" fill="none" xmlns="http://www.w3.org/2000/svg">
<g id="Linked Path Group">
<path id="[Linked] Ellipse 4752" d="M10.8306 10.2467C10.8306 10.7157 10.4504 11.096 9.98133 11.096C9.5123 11.096 9.13208 10.7157 9.13208 10.2467C9.13208 9.77768 9.5123 9.39746 9.98133 9.39746C10.4504 9.39746 10.8306 9.77768 10.8306 10.2467Z" fill="white"/>
<path id="[Copy] Rectangle 5735" d="M19.7844 9.73828V10.7574L10.1596 10.5309V9.96475L19.7844 9.73828Z" fill="white"/>
<path id="[Copy] Rectangle 5735_2" d="M19.1467 13.7646L18.7323 14.6957L10.0314 10.5747L10.2616 10.0575L19.1467 13.7646Z" fill="white"/>
<path id="[Copy] Rectangle 5735_3" d="M16.928 17.1797L16.1717 17.8627L9.88887 10.5679L10.309 10.1884L16.928 17.1797Z" fill="white"/>
<path id="[Copy] Rectangle 5735_4" d="M13.5173 19.3994L12.5492 19.7177L9.75875 10.5035L10.2966 10.3267L13.5173 19.3994Z" fill="white"/>
<path id="[Copy] Rectangle 5735_5" d="M9.45581 20.04L8.44223 19.9341L9.66754 10.385L10.2306 10.4438L9.45581 20.04Z" fill="white"/>
<path id="[Copy] Rectangle 5735_6" d="M5.50586 18.9707L4.62464 18.4588L9.65469 10.2499L10.1443 10.5343L5.50586 18.9707Z" fill="white"/>
<path id="[Copy] Rectangle 5735_7" d="M2.34351 16.3896L1.74704 15.5633L9.68359 10.1137L10.015 10.5727L2.34351 16.3896Z" fill="white"/>
<path id="[Copy] Rectangle 5735_8" d="M0.509766 12.7666L0.29975 11.7694L9.76462 10.0075L9.88129 10.5615L0.509766 12.7666Z" fill="white"/>
<path id="[Copy] Rectangle 5735_9" d="M0.312256 8.65137L0.529873 7.65578L9.88431 9.93229L9.76341 10.4854L0.312256 8.65137Z" fill="white"/>
<path id="[Copy] Rectangle 5735_10" d="M1.80444 4.84375L2.40993 4.02403L10.0172 9.92466L9.68081 10.3801L1.80444 4.84375Z" fill="white"/>
<path id="[Copy] Rectangle 5735_11" d="M4.68555 1.99707L5.57052 1.49172L10.1466 9.96209L9.65497 10.2428L4.68555 1.99707Z" fill="white"/>
<path id="[Copy] Rectangle 5735_12" d="M8.53052 0.546875L9.54488 0.448788L10.2458 10.0507L9.68231 10.1052L8.53052 0.546875Z" fill="white"/>
<path id="[Copy] Rectangle 5735_13" d="M12.6331 0.801758L13.5988 1.12729L10.3097 10.1755L9.77323 9.99465L12.6331 0.801758Z" fill="white"/>
<path id="[Copy] Rectangle 5735_14" d="M16.2217 2.67285L16.973 3.36136L10.3034 10.3043L9.88602 9.92181L16.2217 2.67285Z" fill="white"/>
<path id="[Copy] Rectangle 5735_15" d="M18.7817 5.89844L19.1857 6.83404L10.2597 10.4416L10.0353 9.92178L18.7817 5.89844Z" fill="white"/>
</g>
</svg>
