<svg width="17" height="20" viewBox="0 0 17 20"  xmlns="http://www.w3.org/2000/svg">
<g id="Group 4060">
<g id="Group 4224">
<path id="Vector" d="M10.0364 9.74368C10.3409 9.37396 10.5242 8.90048 10.5242 8.38519C10.5242 7.20538 9.56442 6.24561 8.38461 6.24561C7.20496 6.24561 6.24518 7.20538 6.24518 8.38519C6.24518 8.90048 6.42828 9.37396 6.733 9.74368C6.15027 10.0356 5.64963 10.4792 5.28906 11.032C6.03705 11.9054 7.14728 12.4601 8.38461 12.4601C9.6221 12.4601 10.7323 11.9054 11.4803 11.0318C11.1199 10.479 10.6191 10.0356 10.0364 9.74368Z" />
<path id="Vector_2" d="M14.3138 2.4559C12.7301 0.872192 10.6244 0 8.38486 0C6.14517 0 4.03946 0.872192 2.45575 2.4559C0.872192 4.03946 0 6.14517 0 8.38486C0 10.6244 0.872192 12.7301 2.45575 14.3137L7.97058 19.8283C8.08502 19.9428 8.23502 20 8.38486 20C8.53485 20 8.68484 19.9428 8.79929 19.8283L14.3138 14.3138C15.8975 12.7301 16.7697 10.6244 16.7697 8.38486C16.7696 6.14517 15.8974 4.03961 14.3138 2.4559ZM8.38486 13.6316C5.49179 13.6316 3.13812 11.2779 3.13812 8.38486C3.13812 5.49179 5.49179 3.13797 8.38486 3.13797C11.2778 3.13797 13.6314 5.49179 13.6314 8.3847C13.6314 11.2778 11.2778 13.6316 8.38486 13.6316Z" />
</g>
</g>
</svg>
