<svg width="18" height="18" viewBox="0 0 18 18" fill="none" xmlns="http://www.w3.org/2000/svg">
<g id="Group 4060">
<path id="Vector" d="M13.909 0H4.09088C3.00631 0.00129915 1.96653 0.432719 1.19963 1.19963C0.432719 1.96653 0.00129915 3.00631 0 4.09088V10.6363C0.00119006 11.579 0.327344 12.4925 0.92349 13.2228C1.51964 13.953 2.34932 14.4555 3.2727 14.6454V17.1817C3.27268 17.3298 3.31287 17.4752 3.38899 17.6023C3.4651 17.7293 3.57429 17.8333 3.70489 17.9032C3.8355 17.9731 3.98263 18.0062 4.13058 17.999C4.27853 17.9918 4.42175 17.9446 4.54497 17.8624L9.24539 14.7272H13.909C14.9936 14.7259 16.0333 14.2945 16.8003 13.5275C17.5672 12.7606 17.9986 11.7209 17.9999 10.6363V4.09088C17.9986 3.00631 17.5672 1.96653 16.8003 1.19963C16.0333 0.432719 14.9936 0.00129915 13.909 0ZM12.2726 9.81811H5.72723C5.51024 9.81811 5.30213 9.73191 5.1487 9.57848C4.99526 9.42504 4.90906 9.21693 4.90906 8.99994C4.90906 8.78294 4.99526 8.57484 5.1487 8.4214C5.30213 8.26796 5.51024 8.18176 5.72723 8.18176H12.2726C12.4896 8.18176 12.6977 8.26796 12.8512 8.4214C13.0046 8.57484 13.0908 8.78294 13.0908 8.99994C13.0908 9.21693 13.0046 9.42504 12.8512 9.57848C12.6977 9.73191 12.4896 9.81811 12.2726 9.81811ZM13.909 6.54541H4.09088C3.87389 6.54541 3.66578 6.45921 3.51234 6.30577C3.35891 6.15233 3.2727 5.94423 3.2727 5.72723C3.2727 5.51024 3.35891 5.30213 3.51234 5.1487C3.66578 4.99526 3.87389 4.90906 4.09088 4.90906H13.909C14.126 4.90906 14.3341 4.99526 14.4875 5.1487C14.641 5.30213 14.7272 5.51024 14.7272 5.72723C14.7272 5.94423 14.641 6.15233 14.4875 6.30577C14.3341 6.45921 14.126 6.54541 13.909 6.54541Z" fill="black"/>
</g>
</svg>
