<svg width="20" height="20" viewBox="0 0 20 20" fill="none" xmlns="http://www.w3.org/2000/svg">
<g id="mortarboard 1">
<g id="Group">
<g id="Group_2">
<path id="Vector" d="M19.888 14.4123C19.7408 14.0591 19.4601 13.7783 19.1068 13.6311V8.5646C19.1744 8.46355 19.22 8.34951 19.2407 8.2298C19.2392 8.00238 19.1097 7.79523 18.906 7.69414L9.84426 3.632C9.70324 3.56391 9.5389 3.56391 9.39788 3.632L0.336186 7.69414C0.119966 7.78089 -0.0153453 7.99746 0.00139427 8.2298C0.00344312 8.46006 0.158546 8.66076 0.380825 8.72083L3.48323 9.79216V13.8097C3.48323 13.9853 3.56592 14.1507 3.70642 14.2561C3.85468 14.3651 4.04849 14.3904 4.21977 14.323C7.69659 13.0283 11.5232 13.0283 15.0001 14.323L15.2009 14.3676C15.3143 14.3645 15.4237 14.3254 15.5134 14.2561C15.6685 14.1612 15.7619 13.9914 15.7589 13.8097V9.76985L17.9909 9.0333V13.6311C17.2513 13.9393 16.9015 14.7887 17.2097 15.5283C17.5178 16.2679 18.3672 16.6176 19.1068 16.3094C19.8464 16.0012 20.1962 15.1519 19.888 14.4123Z" fill="black"/>
</g>
</g>
</g>
</svg>
