<svg width="18" height="18" viewBox="0 0 18 18" fill="none" xmlns="http://www.w3.org/2000/svg">
<path d="M17.357 5.16393C16.9042 4.13114 16.3005 3.09836 15.5458 2.36065C14.7912 1.62295 13.7346 1.03279 12.6781 0.590161C11.4707 0.147539 10.2632 0 8.90493 0C7.99934 0 7.24468 0.147539 6.49002 0.295084C5.73536 0.590161 4.9807 0.885244 4.37697 1.32787C3.77324 1.77049 3.16951 2.21311 2.56578 2.80327C1.96211 3.39344 1.50932 3.9836 1.20746 4.72131C0.905591 5.45899 0.603726 6.19674 0.301862 6.93443C0.150929 7.67212 0 8.55736 0 9.29505C0 10.1803 0.150929 10.918 0.301862 11.6557C0.452794 12.3934 0.754659 13.1311 1.20746 13.7213C1.66025 14.3115 2.11305 15.0492 2.56578 15.4918C3.16951 16.0819 3.77324 16.5246 4.37697 16.8196C4.9807 17.2622 5.73536 17.5574 6.49002 17.7049C7.24468 17.8525 8.15027 18 8.90493 18C9.8104 18 10.5651 17.8525 11.4707 17.7049C12.2253 17.4098 12.98 17.1147 13.5837 16.8196C14.1874 16.377 14.7912 15.9344 15.3949 15.3442C15.9986 14.7541 16.4514 14.1639 16.7533 13.4262C17.0551 12.6885 17.357 11.9508 17.6589 11.2131C17.8098 10.4754 17.9607 9.59013 17.9607 8.70489C18.1117 7.37705 17.8098 6.19674 17.357 5.16393ZM12.8291 9.29505C12.5272 9.88526 11.9235 10.1803 11.4707 10.4754C10.8669 10.7705 10.2632 11.2131 9.81041 11.5082C9.05587 11.9508 8.30121 12.541 7.39561 12.6885C6.49002 12.836 6.49002 12.2459 6.64095 11.6557C7.09375 10.1803 7.09375 8.55735 6.94282 6.93443C6.94282 6.49182 6.33909 5.01639 7.09375 4.86884C7.24468 4.86884 7.39561 4.86884 7.39561 4.86884C8.15027 5.01639 8.754 5.45899 9.35773 5.90166C10.1123 6.34428 10.716 6.93443 11.4707 7.37705C11.7725 7.67212 12.2253 7.81966 12.3763 8.11474C12.8291 8.55735 12.98 8.85243 12.8291 9.29505Z" fill="black"/>
</svg>
