<svg width="18" height="18" viewBox="0 0 18 18" fill="none" xmlns="http://www.w3.org/2000/svg">
<path d="M15.561 1.2H14.7857V0.6C14.7857 0.44087 14.718 0.288258 14.5974 0.175736C14.4769 0.0632141 14.3134 0 14.1429 0C13.9724 0 13.8088 0.0632141 13.6883 0.175736C13.5677 0.288258 13.5 0.44087 13.5 0.6V1.2H9.64286V0.6C9.64286 0.44087 9.57513 0.288258 9.45457 0.175736C9.33401 0.0632141 9.1705 0 9 0C8.8295 0 8.66599 0.0632141 8.54543 0.175736C8.42487 0.288258 8.35714 0.44087 8.35714 0.6V1.2H4.5V0.6C4.5 0.44087 4.43227 0.288258 4.31171 0.175736C4.19115 0.0632141 4.02764 0 3.85714 0C3.68665 0 3.52313 0.0632141 3.40257 0.175736C3.28202 0.288258 3.21429 0.44087 3.21429 0.6V1.2H2.439C1.79245 1.20095 1.17267 1.44109 0.715493 1.86779C0.258313 2.2945 0.00102006 2.87295 0 3.4764V15.7236C0.00102006 16.327 0.258313 16.9055 0.715493 17.3322C1.17267 17.7589 1.79245 17.999 2.439 18H15.561C16.2076 17.999 16.8273 17.7589 17.2845 17.3322C17.7417 16.9055 17.999 16.327 18 15.7236V3.4764C17.999 2.87295 17.7417 2.2945 17.2845 1.86779C16.8273 1.44109 16.2076 1.20095 15.561 1.2ZM7.52529 11.8242L5.59671 13.6242C5.47616 13.7367 5.31268 13.7999 5.14221 13.7999C4.97175 13.7999 4.80827 13.7367 4.68771 13.6242L3.402 12.4242C3.3406 12.3689 3.29163 12.3026 3.25793 12.2294C3.22424 12.1562 3.20651 12.0775 3.20577 11.9978C3.20503 11.9182 3.22129 11.8392 3.25361 11.7654C3.28594 11.6917 3.33367 11.6247 3.39403 11.5684C3.45439 11.512 3.52617 11.4675 3.60517 11.4373C3.68418 11.4071 3.76883 11.392 3.85419 11.3926C3.93954 11.3933 4.0239 11.4099 4.10233 11.4413C4.18076 11.4728 4.2517 11.5185 4.311 11.5758L5.14286 12.3516L6.61693 10.9758C6.73817 10.8665 6.90056 10.806 7.06911 10.8074C7.23767 10.8088 7.39891 10.8719 7.5181 10.9831C7.63729 11.0944 7.7049 11.2448 7.70636 11.4022C7.70783 11.5595 7.64239 11.711 7.52529 11.8242ZM7.52529 6.4242L5.59671 8.2242C5.47616 8.33668 5.31268 8.39987 5.14221 8.39987C4.97175 8.39987 4.80827 8.33668 4.68771 8.2242L3.402 7.0242C3.3406 6.96885 3.29163 6.90265 3.25793 6.82944C3.22424 6.75624 3.20651 6.67751 3.20577 6.59784C3.20503 6.51817 3.22129 6.43917 3.25361 6.36543C3.28594 6.29169 3.33367 6.2247 3.39403 6.16836C3.45439 6.11203 3.52617 6.06748 3.60517 6.03731C3.68418 6.00714 3.76883 5.99196 3.85419 5.99265C3.93954 5.99334 4.0239 6.00989 4.10233 6.04134C4.18076 6.07278 4.2517 6.11849 4.311 6.1758L5.14286 6.9516L6.61693 5.5758C6.73817 5.46651 6.90056 5.40603 7.06911 5.4074C7.23767 5.40876 7.39891 5.47186 7.5181 5.58311C7.63729 5.69435 7.7049 5.84484 7.70636 6.00216C7.70783 6.15948 7.64239 6.31104 7.52529 6.4242ZM14.1429 13.2H9.64286C9.47236 13.2 9.30885 13.1368 9.18829 13.0243C9.06773 12.9117 9 12.7591 9 12.6C9 12.4409 9.06773 12.2883 9.18829 12.1757C9.30885 12.0632 9.47236 12 9.64286 12H14.1429C14.3134 12 14.4769 12.0632 14.5974 12.1757C14.718 12.2883 14.7857 12.4409 14.7857 12.6C14.7857 12.7591 14.718 12.9117 14.5974 13.0243C14.4769 13.1368 14.3134 13.2 14.1429 13.2ZM14.1429 7.8H9.64286C9.47236 7.8 9.30885 7.73679 9.18829 7.62426C9.06773 7.51174 9 7.35913 9 7.2C9 7.04087 9.06773 6.88826 9.18829 6.77574C9.30885 6.66321 9.47236 6.6 9.64286 6.6H14.1429C14.3134 6.6 14.4769 6.66321 14.5974 6.77574C14.718 6.88826 14.7857 7.04087 14.7857 7.2C14.7857 7.35913 14.718 7.51174 14.5974 7.62426C14.4769 7.73679 14.3134 7.8 14.1429 7.8Z" fill="black"/>
</svg>
