<svg width="17" height="17" viewBox="0 0 17 17" fill="none" xmlns="http://www.w3.org/2000/svg">
<path id="Vector" d="M14.0145 0.402726L8.1809 6.23636L2.34727 0.402726C1.8103 -0.134242 0.939693 -0.134242 0.402726 0.402726C-0.134242 0.939693 -0.134242 1.8103 0.402726 2.34727L6.23636 8.1809L0.402726 14.0145C-0.134242 14.5515 -0.134242 15.4221 0.402726 15.9591C0.939693 16.496 1.8103 16.496 2.34727 15.9591L8.1809 10.1254L14.0145 15.9591C14.5515 16.496 15.4221 16.496 15.9591 15.9591C16.496 15.4221 16.496 14.5515 15.9591 14.0145L10.1254 8.1809L15.9591 2.34727C16.496 1.8103 16.496 0.939693 15.9591 0.402726C15.4221 -0.134242 14.5515 -0.134242 14.0145 0.402726Z" fill="white"/>
</svg>
