<svg width="44" height="44" viewBox="0 0 44 44" fill="none" xmlns="http://www.w3.org/2000/svg">
<path id="Vector" d="M39.9606 4.03923C34.4704 -1.45098 25.4474 -1.32892 19.8076 4.31091C16.8689 7.24968 15.4293 11.1069 15.5001 14.904C15.5041 15.1107 15.5119 15.3169 15.5247 15.5231L22.6406 8.40728C21.2566 11.0517 21.1512 14.1682 22.3364 16.824L16.8241 22.3363C14.1683 21.1507 11.0519 21.2565 8.40742 22.6405L15.5233 15.5246C15.317 15.5118 15.1108 15.5039 14.9041 15.5C11.107 15.4291 7.24984 16.8687 4.31107 19.8075C-1.32922 25.4478 -1.45079 34.4709 4.03939 39.9606C9.52958 45.4508 18.5526 45.3292 24.1924 39.6889C27.2025 36.6788 28.6401 32.7054 28.4925 28.8192C28.4881 28.7046 28.4822 28.5894 28.4748 28.4747C28.5895 28.4816 28.7046 28.488 28.8193 28.4924C32.705 28.6401 36.6788 27.2024 39.6889 24.1923C45.3292 18.552 45.4508 9.52894 39.9606 4.03874V4.03923ZM23.6574 7.60799C23.4167 9.21641 24.1284 11.3963 25.601 13.5594L22.6922 16.4681C21.4928 13.6268 21.8206 10.2598 23.6574 7.60799ZM36.7251 11.8333L39.6333 8.92505C40.8313 11.7654 40.503 15.1314 38.6667 17.7822C38.9069 16.1743 38.1962 13.9954 36.7251 11.8338V11.8333ZM27.7346 16.1226C28.4413 16.8294 29.1786 17.4554 29.9218 17.9924L26.9495 20.9646C26.0927 20.5463 25.2914 19.9832 24.5827 19.2745C23.8749 18.5667 23.3124 17.7665 22.894 16.9106L25.8668 13.9378C26.4032 14.68 27.0283 15.4163 27.7346 16.1226ZM26.2014 13.6032L32.0701 7.73448C32.8216 8.27341 33.5589 8.89896 34.2588 9.59834C34.9592 10.2987 35.5852 11.037 36.1246 11.7895L30.2564 17.6577C29.5039 17.1183 28.7656 16.4922 28.0653 15.7919C27.3654 15.092 26.7404 14.3547 26.2014 13.6032ZM30.3002 18.2582C32.4624 19.7293 34.6407 20.4405 36.2486 20.1998C33.5978 22.0361 30.2323 22.3644 27.3915 21.1664L30.2998 18.2582H30.3002ZM33.648 19.4354C32.6627 19.1155 31.6409 18.5978 30.6364 17.9215L36.3884 12.1695C37.0647 13.1735 37.5824 14.1957 37.9023 15.1811C38.4688 16.9249 38.3497 18.3162 37.5662 19.0993C36.7831 19.8823 35.3913 20.0019 33.648 19.4354ZM36.4593 11.4548C35.9223 10.7116 35.2968 9.97436 34.5895 9.2676C33.8823 8.56084 33.147 7.93627 32.4048 7.3998L35.3775 4.42706C36.2334 4.84541 37.0337 5.40797 37.7414 6.11571C38.4501 6.82444 39.0132 7.62571 39.4315 8.48258L36.4593 11.4548ZM32.0263 7.13402C29.8637 5.66144 27.6839 4.94975 26.0749 5.19042C28.7268 3.35363 32.0937 3.02584 34.935 4.22527L32.0263 7.13402ZM28.6761 5.95428C29.6624 6.27469 30.6851 6.79295 31.6901 7.47018L25.9371 13.2232C25.2599 12.2182 24.7416 11.195 24.4212 10.2091C23.8548 8.46535 23.9739 7.07398 24.7574 6.29093C25.5404 5.50788 26.9323 5.38828 28.6756 5.95477L28.6761 5.95428ZM17.6672 22.1375L22.5446 17.26C22.9767 18.1066 23.5452 18.8995 24.2514 19.6057C24.9582 20.3125 25.7521 20.8819 26.6001 21.3141L21.3142 26.6C20.882 25.752 20.3126 24.9586 19.6058 24.2514C18.8996 23.5451 18.1072 22.9766 17.2601 22.5445L17.6677 22.137L17.6672 22.1375ZM18.2578 30.3007L21.166 27.3924C22.364 30.2328 22.0357 33.5987 20.1994 36.2496C20.4396 34.6417 19.7289 32.4628 18.2578 30.3012V30.3007ZM7.13368 32.0267L4.22494 34.9355C3.02552 32.0942 3.35331 28.7272 5.19009 26.0754C4.94991 27.6838 5.6611 29.8636 7.13368 32.0267ZM7.46984 31.6906C6.79261 30.6856 6.27435 29.6623 5.95395 28.6765C5.38745 26.9327 5.50656 25.5413 6.2901 24.7578C7.07314 23.9748 8.46501 23.8552 10.2083 24.4217C11.1946 24.7421 12.2173 25.2603 13.2223 25.9376L7.46934 31.6906H7.46984ZM13.6028 26.2018C14.3543 26.7408 15.0916 27.3663 15.7915 28.0657C16.4918 28.7661 17.1179 29.5048 17.6573 30.2569L11.7891 36.1251C11.0366 35.5856 10.2984 34.9596 9.59799 34.2592C8.89763 33.5589 8.27306 32.8221 7.73413 32.0705L13.6028 26.2018ZM7.39896 32.4052C7.93543 33.1474 8.56049 33.8837 9.26676 34.59C9.97352 35.2967 10.7108 35.9228 11.454 36.4598L8.48174 39.432C7.62487 39.0136 6.82361 38.4506 6.11489 37.7419C5.40714 37.0341 4.84459 36.2338 4.42624 35.378L7.39896 32.4052ZM11.8329 36.7255C13.9951 38.1971 16.1734 38.9078 17.7813 38.6672C15.1305 40.5035 11.765 40.8317 8.92421 39.6338L11.8325 36.7255H11.8329ZM15.1807 37.9033C14.1954 37.5834 13.1731 37.0656 12.1691 36.3894L17.9211 30.6373C18.5974 31.6414 19.1151 32.6636 19.435 33.6489C20.0015 35.3927 19.8824 36.7841 19.0989 37.5671C18.3158 38.3502 16.924 38.4698 15.1807 37.9033ZM16.9102 22.8939C17.7661 23.3123 18.5664 23.8748 19.2741 24.5826C19.9828 25.2913 20.5459 26.0926 20.9642 26.9495L17.992 29.9217C17.455 29.1785 16.8295 28.4412 16.1222 27.7345C15.416 27.0282 14.6797 26.4031 13.9375 25.8667L16.9102 22.8939ZM16.4677 22.6926L13.559 25.6014C11.3964 24.1288 9.21656 23.4171 7.60764 23.6578C10.2595 21.821 13.6264 21.4932 16.4677 22.6926ZM28.0402 29.5624C27.9905 33.2454 26.5095 36.7275 23.87 39.367C21.2305 42.0066 17.7484 43.4875 14.0654 43.5372C10.3825 43.5869 6.93878 42.1995 4.36964 39.6303C1.8005 37.0612 0.413066 33.6179 0.462776 29.9345C0.512485 26.2516 1.99343 22.7694 4.63295 20.1299C7.27248 17.4904 10.761 16.0094 14.4439 15.9597L5.96674 24.4369C2.99993 27.4047 2.2907 31.7565 3.86861 35.2918L3.89322 35.3474C4.34306 36.3377 4.97304 37.2625 5.78365 38.0736C6.59475 38.8847 7.51955 39.5147 8.5098 39.964L8.56837 39.9901C12.1031 41.5666 16.4535 40.8568 19.4203 37.89L19.4213 37.891L28.0402 29.272C28.0407 29.369 28.0412 29.4659 28.0402 29.5629V29.5624ZM28.4566 28.2114L28.211 28.4565L21.2147 35.4528C22.5997 32.8088 22.7065 29.6924 21.5219 27.0361L27.0362 21.5218C29.6924 22.7064 32.8088 22.5996 35.4528 21.2146L28.4566 28.2109V28.2114ZM39.3666 23.8704C36.727 26.51 33.2449 27.9909 29.562 28.0406C29.465 28.0421 29.3681 28.0416 29.2711 28.0406L37.89 19.4217L37.8891 19.4207C40.8559 16.4533 41.5651 12.1035 39.9892 8.56871L39.9631 8.51014C39.5132 7.51989 38.8832 6.59509 38.0726 5.78399C37.2615 4.97288 36.3367 4.3429 35.3465 3.89355L35.2909 3.86894C31.7556 2.29102 27.4043 2.99976 24.436 5.96708L15.9588 14.4443C16.0085 10.7613 17.4895 7.27282 20.129 4.63328C22.7685 1.99375 26.2507 0.512798 29.9336 0.463089C33.6165 0.413379 37.0602 1.80082 39.6294 4.36997C42.1985 6.93912 43.586 10.3824 43.5367 14.0658C43.487 17.7488 42.0061 21.2309 39.3666 23.8704Z" fill="black"/>
</svg>
