<svg width="84" height="84" viewBox="0 0 84 84" fill="none" xmlns="http://www.w3.org/2000/svg">
<g clip-path="url(#clip0_1_1036)">
<path d="M76.4427 37.6562C73.2963 34.5098 68.2032 34.5098 65.0568 37.6562L54.3481 48.3649C51.2017 51.5114 51.2017 56.6044 54.3481 59.7508C57.4946 62.8973 62.5876 62.8973 65.7341 59.7508L76.4427 49.0422C79.5892 45.8957 79.5892 40.8027 76.4427 37.6562Z" fill="#00D0D2"/>
<path d="M59.0254 67.3131C55.7562 67.3131 52.6844 66.0385 50.3699 63.7293C48.0554 61.4201 46.7861 58.343 46.7861 55.0738C46.7861 51.8047 48.0607 48.7329 50.3699 46.4184L63.1158 33.6725C65.4249 31.3633 68.5021 30.0887 71.7712 30.0887C75.0403 30.0887 78.1121 31.3633 80.4267 33.6725C82.7358 35.9817 84.0051 39.0535 84.0051 42.328C84.0051 45.6024 82.7358 48.6742 80.4267 50.9834L67.6808 63.7293C65.3716 66.0385 62.2945 67.3131 59.0254 67.3131ZM71.7659 32.2273C69.0674 32.2273 66.5289 33.2779 64.6197 35.1871L51.8738 47.9329C49.9646 49.8422 48.914 52.3807 48.914 55.0792C48.914 57.7777 49.9646 60.3162 51.8738 62.2254C53.783 64.1346 56.3215 65.1852 59.02 65.1852C61.7185 65.1852 64.257 64.1346 66.1662 62.2254L78.9121 49.4795C80.816 47.5756 81.8666 45.0371 81.8666 42.3333C81.8666 39.6295 80.816 37.091 78.9121 35.1871C77.0029 33.2779 74.4644 32.2273 71.7659 32.2273Z" fill="#00D0D2"/>
<path d="M29.6566 24.2491C26.5101 21.1027 21.4171 21.1027 18.2707 24.2491L7.562 34.9578C4.41553 38.1043 4.41553 43.1973 7.562 46.3437C10.7085 49.4902 15.8015 49.4902 18.9479 46.3437L29.6566 35.6351C32.8031 32.4886 32.8031 27.3956 29.6566 24.2491Z" fill="#00D0D2"/>
<path d="M12.2392 53.9113C8.9701 53.9113 5.89829 52.6367 3.58377 50.3275C1.26925 48.0183 0 44.9412 0 41.672C0 38.4029 1.27459 35.3311 3.58377 33.0166L16.3296 20.2707C18.6388 17.9562 21.716 16.687 24.9851 16.687C28.2542 16.687 31.326 17.9615 33.6405 20.2707C35.9497 22.5799 37.219 25.6517 37.219 28.9262C37.219 32.2006 35.9497 35.2724 33.6405 37.5816L20.8947 50.3275C18.5855 52.642 15.5084 53.9113 12.2392 53.9113ZM24.9851 18.8201C22.2866 18.8201 19.7481 19.8707 17.8389 21.78L5.09301 34.5258C3.1838 36.435 2.1332 38.9735 2.1332 41.672C2.1332 44.3705 3.1838 46.909 5.09301 48.8182C7.00222 50.7275 9.54073 51.7781 12.2392 51.7781C14.9377 51.7781 17.4762 50.7275 19.3854 48.8182L32.1313 36.0724C34.0352 34.1685 35.0858 31.63 35.0858 28.9262C35.0858 26.2223 34.0352 23.6838 32.1313 21.78C30.2221 19.8707 27.6836 18.8201 24.9851 18.8201Z" fill="#00D0D2"/>
<path d="M37.6562 7.55687C34.5098 10.7033 34.5098 15.7963 37.6562 18.9428L48.3649 29.6515C51.5114 32.7979 56.6044 32.7979 59.7508 29.6515C62.8973 26.505 62.8973 21.412 59.7508 18.2655L49.0422 7.55687C45.8957 4.4104 40.8027 4.4104 37.6562 7.55687Z" fill="#00D0D2"/>
<path d="M55.0739 37.219C51.8048 37.219 48.733 35.9444 46.4185 33.6352L33.6726 20.8893C31.3635 18.5802 30.0889 15.503 30.0889 12.2339C30.0889 8.96476 31.3635 5.89296 33.6726 3.57844C35.9818 1.26925 39.0536 0 42.3281 0C45.6026 0 48.6744 1.26925 50.9835 3.57844L63.7294 16.3243C66.0386 18.6335 67.3132 21.7106 67.3132 24.9797C67.3132 28.2489 66.0386 31.3207 63.7294 33.6352C61.4202 35.9444 58.3431 37.219 55.0739 37.219ZM42.3334 2.1332C39.7469 2.1332 37.1551 3.1198 35.1872 5.08768C33.278 6.99689 32.2274 9.5354 32.2274 12.2339C32.2274 14.9324 33.278 17.4709 35.1872 19.3801L47.9331 32.126C49.8423 34.0352 52.3808 35.0858 55.0793 35.0858C57.7778 35.0858 60.3163 34.0352 62.2255 32.126C64.1347 30.2168 65.1853 27.6782 65.1853 24.9797C65.1853 22.2813 64.1347 19.7427 62.2255 17.8335L49.4796 5.08768C47.5118 3.1198 44.9199 2.1332 42.3334 2.1332Z" fill="#00D0D2"/>
<path d="M24.249 54.3432C21.1025 57.4897 21.1025 62.5827 24.249 65.7291L34.9577 76.4378C38.1041 79.5843 43.1971 79.5843 46.3436 76.4378C49.4901 73.2913 49.4901 68.1983 46.3436 65.0518L35.635 54.3432C32.4885 51.1967 27.3955 51.1967 24.249 54.3432Z" fill="#00D0D2"/>
<path d="M41.6721 84C38.403 84 35.3312 82.7254 33.0166 80.4162L20.2708 67.6703C17.9563 65.3612 16.687 62.284 16.687 59.0149C16.687 55.7458 17.9616 52.674 20.2708 50.3594C22.58 48.0503 25.6518 46.781 28.9262 46.781C32.2007 46.781 35.2725 48.0503 37.5817 50.3594L50.3275 63.1053C52.6367 65.4198 53.9113 68.4916 53.9113 71.7608C53.9113 75.0299 52.6367 78.1017 50.3275 80.4162C48.0184 82.7254 44.9412 84 41.6721 84ZM28.9262 48.9195C26.3397 48.9195 23.7532 49.9061 21.78 51.874C19.8068 53.8419 18.8202 56.3217 18.8202 59.0202C18.8202 61.7187 19.8708 64.2572 21.78 66.1664L34.5259 78.9123C36.4351 80.8215 38.9736 81.8721 41.6721 81.8721C44.3706 81.8721 46.9091 80.8215 48.8183 78.9123C50.7275 77.0031 51.7781 74.4646 51.7781 71.7661C51.7781 69.0676 50.7275 66.5291 48.8183 64.6199L36.0724 51.874C34.1046 49.9061 31.5127 48.9195 28.9262 48.9195Z" fill="#00D0D2"/>
</g>
<defs>
<clipPath id="clip0_1_1036">
<rect width="84" height="84" fill="white"/>
</clipPath>
</defs>
</svg>
