<svg width="80" height="78" viewBox="0 0 80 78" fill="none" xmlns="http://www.w3.org/2000/svg">
<path d="M52.6338 20.0447L41.582 0.949604C40.8488 -0.316535 39.0134 -0.316535 38.2802 0.949604L27.2235 20.0447C26.4903 21.3109 27.4056 22.896 28.8719 22.896H50.9804C52.4468 22.896 53.367 21.3109 52.6289 20.0447H52.6338ZM46.8422 20.0202H33.0201C32.1048 20.0202 31.5291 19.0289 31.9867 18.2388L38.8953 6.3037C39.3529 5.51359 40.4995 5.51359 40.9571 6.3037L47.8657 18.2388C48.3233 19.0289 47.7525 20.0202 46.8323 20.0202H46.8422Z" fill="white"/>
<path d="M27.2235 57.9553L38.2802 77.0504C39.0134 78.3165 40.8488 78.3165 41.582 77.0504L52.6387 57.9553C53.3719 56.6891 52.4566 55.104 50.9903 55.104H28.8818C27.4154 55.104 26.4953 56.6891 27.2334 57.9553H27.2235ZM33.0201 57.9749H46.8422C47.7574 57.9749 48.3331 58.9662 47.8755 59.7563L40.9669 71.6914C40.5093 72.4815 39.3628 72.4815 38.9052 71.6914L31.9966 59.7563C31.5389 58.9662 32.1097 57.9749 33.0299 57.9749H33.0201Z" fill="white"/>
<path d="M59.9016 51.8896L79.0479 40.8624C80.3174 40.1312 80.3174 38.3007 79.0479 37.5695L59.9016 26.5472C58.6321 25.816 57.0427 26.7288 57.0427 28.1912V50.2407C57.0427 51.7031 58.6321 52.6208 59.9016 51.8847V51.8896ZM59.9213 46.1085V32.3233C59.9213 31.4105 60.9152 30.8364 61.7075 31.2928L73.6745 38.1829C74.4667 38.6393 74.4667 39.7828 73.6745 40.2392L61.7075 47.1293C60.9152 47.5857 59.9213 47.0164 59.9213 46.0987V46.1085Z" fill="white"/>
<path d="M20.0984 26.5472L0.952147 37.5695C-0.317382 38.3007 -0.317382 40.1312 0.952147 40.8624L20.0984 51.8896C21.3679 52.6208 22.9573 51.708 22.9573 50.2456V28.1961C22.9573 26.7337 21.3679 25.816 20.0984 26.5521V26.5472ZM20.0738 32.3233V46.1085C20.0738 47.0213 19.0798 47.5955 18.2876 47.1391L6.32058 40.249C5.52836 39.7926 5.52836 38.6491 6.32058 38.1927L18.2876 31.3026C19.0798 30.8462 20.0738 31.4154 20.0738 32.3331V32.3233Z" fill="white"/>
<path d="M49.1696 27.6808H30.6926C29.4034 27.6808 28.3602 28.7212 28.3602 30.007V48.4347C28.3602 49.7205 29.4034 50.7609 30.6926 50.7609H49.1696C50.4589 50.7609 51.502 49.7205 51.502 48.4347V30.007C51.502 28.7212 50.4589 27.6808 49.1696 27.6808ZM48.2593 45.2006C48.2593 46.4864 47.2161 47.5268 45.9269 47.5268H33.9255C32.6362 47.5268 31.5931 46.4864 31.5931 45.2006V33.2312C31.5931 31.9455 32.6362 30.9051 33.9255 30.9051H45.9269C47.2161 30.9051 48.2593 31.9455 48.2593 33.2312V45.2006Z" fill="white"/>
</svg>
