<svg width="86" height="86" viewBox="0 0 86 86" fill="none" xmlns="http://www.w3.org/2000/svg">
<g clip-path="url(#clip0_1_900)">
<path d="M84.007 23.7149C81.9065 19.2543 74.6058 17.8032 64.7415 19.1188C65.1255 9.17548 62.9968 2.03846 58.3555 0.367133C51.6702 -2.03822 41.7608 7.62273 33.7034 23.2406C16.5384 19.4914 2.7725 20.9651 0.367147 27.6504C-1.30418 32.2861 2.83461 38.4745 10.7395 44.5218C3.43878 51.2805 -0.101502 57.8303 1.9933 62.291C4.08811 66.7516 11.3945 68.2027 21.2588 66.8871C20.8748 76.8304 23.0035 83.9674 27.6448 85.6388C34.3301 88.0441 44.2395 78.3832 52.2969 62.7653C69.4619 66.5145 83.2278 65.0408 85.6331 58.3554C87.3045 53.7198 83.1657 47.5313 75.2607 41.4841C82.5615 34.7197 86.1018 28.1699 84.007 23.7149ZM54.5103 11.0501C57.5932 12.1624 59.688 15.3131 60.7326 19.7737C55.058 20.8748 48.7284 22.7776 42.1729 25.4371C39.8862 24.7482 37.6389 24.1497 35.4368 23.6302C41.5405 14.2685 48.9091 9.03433 54.5046 11.0444L54.5103 11.0501ZM57.4972 48.2202C56.7688 50.236 55.9727 52.1783 55.1257 54.036C53.3584 55.058 51.5008 56.0348 49.5584 56.9439C47.6161 57.8586 45.685 58.666 43.7709 59.3774C41.8003 58.8523 39.7958 58.2256 37.7801 57.4972C33.071 55.8033 28.7684 53.7254 25.0418 51.4499C25.6629 47.1248 26.8091 42.4891 28.5031 37.78C29.2314 35.7643 30.0276 33.8219 30.8745 31.9643C32.6419 30.9423 34.4995 29.9655 36.4419 29.0564C38.3842 28.1417 40.3153 27.3342 42.2294 26.6228C44.2 27.1479 46.2045 27.7747 48.2202 28.503C52.9293 30.197 57.2318 32.2692 60.9584 34.5503C60.3373 38.8754 59.1911 43.5111 57.4972 48.2202ZM62.37 35.4424C65.4304 37.4356 68.0503 39.5699 70.1169 41.7269C67.0227 45.6285 62.4096 49.5923 56.7237 53.0817C57.3165 51.608 57.8981 50.1004 58.4458 48.5646C60.0607 44.0814 61.365 39.6659 62.3644 35.4424H62.37ZM54.3239 55.7186C53.4149 57.565 52.455 59.321 51.4499 60.9584C49.5471 60.6874 47.5822 60.3091 45.5777 59.8292C47.0401 59.2081 48.5138 58.5531 49.9875 57.8586C51.4669 57.1641 52.9067 56.447 54.3183 55.7186H54.3239ZM42.0148 60.0042C35.7022 62.1555 29.7057 63.1888 24.7313 63.0815C24.3868 60.1115 24.4151 56.7349 24.8329 53.1043C28.7233 55.0297 32.958 56.8422 37.4413 58.4571C38.9771 59.0104 40.5016 59.5243 42.0205 60.0042H42.0148ZM23.6302 50.5634C20.5699 48.5703 17.95 46.4359 15.8834 44.279C18.9776 40.3774 23.5907 36.4136 29.2766 32.9242C28.6837 34.3979 28.1022 35.9054 27.5545 37.4413C25.9396 41.9245 24.6353 46.34 23.6359 50.5634H23.6302ZM31.6763 30.2817C32.5854 28.4353 33.5453 26.6793 34.5503 25.0418C36.4532 25.3128 38.4181 25.6911 40.4226 26.1711C38.9601 26.7922 37.4864 27.4472 36.0127 28.1417C34.539 28.8362 33.0936 29.5533 31.682 30.2817H31.6763ZM48.5646 27.5488C47.0288 26.9955 45.5043 26.4816 43.9854 26.0017C50.2981 23.8504 56.2945 22.8171 61.269 22.9244C61.6134 25.8944 61.5852 29.271 61.1674 32.9016C57.277 30.9762 53.0422 29.1637 48.559 27.5488H48.5646ZM11.0501 31.4956C13.0659 25.9001 21.8008 23.5625 32.9016 24.8329C31.8965 26.8599 30.9254 28.9773 29.9993 31.1738C23.7657 34.5277 18.2718 38.1866 13.8055 41.8567C11.0332 38.2035 9.94341 34.5842 11.0501 31.4956ZM12.2697 57.4577C10.8751 54.4933 11.626 50.7837 14.037 46.8877C16.7868 48.7453 19.8697 50.5634 23.235 52.3025C22.4276 56.0009 21.8629 59.5355 21.5411 62.8387C17.0014 62.2176 13.6644 60.4277 12.2697 57.4633V57.4577ZM31.4956 74.9558C28.4127 73.8435 26.3179 70.6928 25.2733 66.2322C30.9479 65.1311 37.2775 63.2283 43.833 60.5688C46.1198 61.2577 48.367 61.8562 50.5691 62.3757C44.4654 71.7374 37.0968 76.9716 31.5013 74.9614L31.4956 74.9558ZM74.9558 54.5103C72.9401 60.1058 64.2051 62.4434 53.1043 61.173C54.1094 59.1459 55.0806 57.0286 56.0066 54.8321C62.2402 51.4782 67.7341 47.8193 72.2004 44.1492C74.9728 47.8024 76.0625 51.4217 74.9558 54.5103ZM71.9632 39.1182C69.2135 37.2606 66.1305 35.4424 62.7653 33.7034C63.5727 30.005 64.1374 26.4703 64.4592 23.1672C68.9989 23.7883 72.3359 25.5782 73.7306 28.5426C75.1252 31.5069 74.3742 35.2166 71.9632 39.1126V39.1182Z" fill="black"/>
<path d="M51.3009 45.9587C52.9379 41.3744 50.5485 36.331 45.9641 34.6941C41.3798 33.0572 36.3364 35.4465 34.6995 40.0309C33.0626 44.6152 35.452 49.6586 40.0363 51.2955C44.6207 52.9324 49.664 50.5431 51.3009 45.9587Z" fill="black"/>
</g>
<defs>
<clipPath id="clip0_1_900">
<rect width="86" height="86" fill="white"/>
</clipPath>
</defs>
</svg>
