<svg width="61" height="63" viewBox="0 0 61 63" fill="none" xmlns="http://www.w3.org/2000/svg">
<g id="Vector">
<path d="M18.6089 15.4818C24.2004 10.6877 32.4131 9.66212 39.0024 12.8146C50.9702 18.4162 54.4587 34.3757 46.0925 44.8093C35.5926 57.7491 15.4486 53.2412 11.3058 36.8609C10.5863 33.8449 10.5172 30.664 11.1657 27.6329C11.538 25.8263 12.1808 24.0785 13.0232 22.4559C12.5262 23.5686 12.1194 24.7231 11.8258 25.9059C7.59862 42.9687 24.8145 57.0401 39.8006 48.4509C48.0766 43.6587 51.6284 32.8554 47.9288 23.8378C43.1413 11.9483 28.6694 7.9295 18.6089 15.4837V15.4818Z" fill="white"/>
<path d="M37.8319 41.382C34.4068 44.4321 29.295 45.1127 25.179 43.1886C17.6303 39.7385 15.4198 29.665 20.6755 23.1174C27.2495 14.9946 39.9637 17.84 42.464 28.1599C43.1567 31.1645 42.7576 34.4003 41.28 37.0808C41.8672 35.7045 42.2184 34.224 42.3047 32.7284C42.7384 26.7457 38.6148 21.0758 32.9254 19.946C27.3262 18.7328 21.5428 22.1317 19.7199 27.7352C16.2161 39.0845 28.3969 48.0111 37.8357 41.3839L37.8319 41.382Z" fill="white"/>
<path d="M61 31.1683C60.9328 31.1683 53.9387 31.0735 47.0366 30.6128C37.7091 29.9873 34.7234 29.1115 33.7812 28.5655V28.5485C33.7678 28.5485 33.7563 28.5466 33.739 28.5428C33.6565 28.4916 33.5893 28.4442 33.5394 28.4025C33.4838 28.3418 33.4224 28.2528 33.3552 28.1352V28.1125H33.3437C32.816 27.1438 31.9641 24.0691 31.3577 14.4202C30.9106 7.29256 30.8204 0.0720347 30.8204 0L30.5 0.0037913L30.1776 0C30.1776 0.0720347 30.0855 7.29446 29.6404 14.4202C29.034 24.0691 28.182 27.1438 27.6544 28.1125H27.6467C27.6467 28.1125 27.6448 28.1257 27.6448 28.1352C27.5776 28.2546 27.5143 28.3418 27.4606 28.4025C27.4087 28.4461 27.3435 28.4916 27.261 28.5428C27.2456 28.5466 27.2303 28.5485 27.2207 28.5485V28.5655C26.2766 29.1115 23.2928 29.9873 13.9653 30.6109C7.06326 31.0735 0.0690783 31.1683 0 31.1683L0.00383768 31.5L0 31.8317C0.0709972 31.8336 7.06134 31.9265 13.9634 32.3891C23.2909 33.0127 26.2766 33.8904 27.2207 34.4345V34.4534C27.2322 34.4534 27.2456 34.4553 27.261 34.4572C27.3435 34.5084 27.4107 34.5558 27.4625 34.5994C27.5162 34.66 27.5776 34.7472 27.6448 34.8667C27.6448 34.8724 27.6467 34.8799 27.6467 34.8856H27.6544C28.182 35.8543 29.034 38.9309 29.6404 48.5779C30.0874 55.7055 30.1776 62.928 30.1776 63L30.5 62.9962L30.8204 63C30.8204 62.928 30.9125 55.7036 31.3577 48.5779C31.9641 38.9309 32.816 35.8543 33.3437 34.8856H33.3552V34.8667C33.4224 34.7453 33.4857 34.66 33.5394 34.5994C33.5913 34.5558 33.6565 34.5065 33.739 34.4572C33.7563 34.4553 33.7697 34.4534 33.7812 34.4534V34.4345C34.7234 33.8904 37.7091 33.0127 47.0347 32.3891C53.9367 31.9265 60.9328 31.8336 61 31.8317V31.1683Z" fill="white"/>
</g>
</svg>
