<svg width="43" height="44" viewBox="0 0 43 44" fill="none" xmlns="http://www.w3.org/2000/svg">
<path d="M12.9967 10.8127C16.9019 7.4644 22.6377 6.74815 27.2398 8.94987C35.5982 12.8621 38.0346 24.0084 32.1916 31.2954C24.8583 40.3327 10.7895 37.1843 7.89613 25.7441C7.39357 23.6377 7.34533 21.4161 7.7983 19.2992C8.05828 18.0374 8.50723 16.8168 9.09556 15.6835C8.74846 16.4606 8.46435 17.2669 8.25931 18.093C5.30697 30.0099 17.3307 39.8375 27.7973 33.8387C33.5773 30.4918 36.0579 22.9466 33.4741 16.6486C30.1305 8.34483 20.0231 5.53806 12.9967 10.814V10.8127Z" fill="black"/>
<path d="M26.4223 28.9017C24.0301 31.032 20.46 31.5073 17.5854 30.1634C12.3132 27.7539 10.7694 20.7184 14.44 16.1455C19.0314 10.4724 27.9112 12.4597 29.6574 19.6672C30.1412 21.7657 29.8624 24.0256 28.8305 25.8977C29.2406 24.9365 29.4858 23.9025 29.5462 22.8579C29.849 18.6795 26.9691 14.7196 22.9955 13.9306C19.085 13.0832 15.0458 15.4571 13.7727 19.3706C11.3256 27.2971 19.8328 33.5316 26.425 28.9031L26.4223 28.9017Z" fill="black"/>
<path d="M42.6032 21.7683C42.5563 21.7683 37.6714 21.7021 32.8509 21.3804C26.3365 20.9435 24.2512 20.3318 23.5932 19.9505V19.9386C23.5839 19.9386 23.5758 19.9373 23.5637 19.9346C23.5061 19.8989 23.4592 19.8658 23.4244 19.8367C23.3855 19.7943 23.3426 19.7321 23.2957 19.65V19.6341H23.2877C22.9191 18.9576 22.3241 16.8101 21.9006 10.0713C21.5884 5.09322 21.5254 0.0503099 21.5254 0L21.3016 0.00264789L21.0764 0C21.0764 0.0503099 21.0121 5.09454 20.7012 10.0713C20.2777 16.8101 19.6827 18.9576 19.3142 19.6341H19.3088C19.3088 19.6341 19.3075 19.6434 19.3075 19.65C19.2605 19.7334 19.2163 19.7943 19.1788 19.8367C19.1426 19.8671 19.097 19.8989 19.0394 19.9346C19.0287 19.9373 19.018 19.9386 19.0113 19.9386V19.9505C18.3519 20.3318 16.268 20.9435 9.75357 21.3791C4.93307 21.7021 0.0482452 21.7683 0 21.7683L0.00268029 22L0 22.2317C0.0495853 22.233 4.93173 22.2979 9.75223 22.6209C16.2667 23.0565 18.3519 23.6695 19.0113 24.0495V24.0627C19.0193 24.0627 19.0287 24.064 19.0394 24.0654C19.097 24.1011 19.144 24.1342 19.1801 24.1647C19.2177 24.207 19.2605 24.2679 19.3075 24.3513C19.3075 24.3553 19.3088 24.3606 19.3088 24.3646H19.3142C19.6827 25.0411 20.2777 27.1899 20.7012 33.9274C21.0135 38.9055 21.0764 43.9497 21.0764 44L21.3016 43.9973L21.5254 44C21.5254 43.9497 21.5897 38.9041 21.9006 33.9274C22.3241 27.1899 22.9191 25.0411 23.2877 24.3646H23.2957V24.3513C23.3426 24.2666 23.3868 24.207 23.4244 24.1647C23.4606 24.1342 23.5061 24.0998 23.5637 24.0654C23.5758 24.064 23.5852 24.0627 23.5932 24.0627V24.0495C24.2512 23.6695 26.3365 23.0565 32.8496 22.6209C37.6701 22.2979 42.5563 22.233 42.6032 22.2317V21.7683Z" fill="black"/>
</svg>
