<svg width="109" height="42" viewBox="0 0 109 42" fill="none" xmlns="http://www.w3.org/2000/svg">
<path d="M54.2948 38.7401C54.2948 22.6973 52.6399 21.0548 36.4764 21.0548C52.6399 21.0548 54.2948 19.4124 54.2948 3.36964C54.2948 19.4124 55.9496 21.0548 72.1131 21.0548C55.9496 21.0548 54.2948 22.6973 54.2948 38.7401Z" fill="black"/>
<path d="M45.9603 29.202C53.5208 21.8108 53.5318 20.2853 46.085 12.7813C53.5318 20.2853 55.0688 20.2962 62.6293 12.905C55.0688 20.2962 55.0578 21.8217 62.5046 29.3257C55.0578 21.8217 53.5208 21.8108 45.9603 29.202Z" fill="black"/>
<path d="M63.7211 41.3329L59.2675 41.3289L66.5554 27.1176L70.9213 27.1734L63.7211 41.3329Z" fill="black"/>
<path d="M69.1267 41.3329L64.6746 41.3289L71.9624 27.1176L76.327 27.1734L69.1267 41.3329Z" fill="black"/>
<path d="M74.5324 41.3329L70.0802 41.3289L77.3681 27.1176L81.7326 27.1734L74.5324 41.3329Z" fill="black"/>
<path d="M79.9394 41.3329L75.4858 41.3289L82.7737 27.1176L87.1383 27.1734L79.9394 41.3329Z" fill="black"/>
<path d="M85.345 41.3329L80.8915 41.3289L88.1794 27.1176L92.5439 27.1734L85.345 41.3329Z" fill="black"/>
<path d="M19.4869 14.9907L15.0347 14.9866L22.3226 0.775391L26.6871 0.832497L19.4869 14.9907Z" fill="black"/>
<path d="M24.8925 14.9907L20.4403 14.9866L27.7282 0.775391L32.0928 0.832497L24.8925 14.9907Z" fill="black"/>
<path d="M30.2995 14.9907L25.846 14.9866L33.1339 0.775391L37.4984 0.832497L30.2995 14.9907Z" fill="black"/>
<path d="M35.7052 14.9907L31.2516 14.9866L38.5395 0.775391L42.904 0.832497L35.7052 14.9907Z" fill="black"/>
<path d="M41.1108 14.9907L36.6573 14.9866L43.9452 0.775391L48.3097 0.832497L41.1108 14.9907Z" fill="black"/>
<path d="M103.294 20.9393C103.294 14.9826 84.2204 10.1177 67.2801 8.46975V7.89869C90.0945 7.89869 108.59 13.8133 108.59 21.1092C108.59 28.4052 90.0945 34.3198 67.2801 34.3198V33.7487C84.2217 32.1008 103.294 26.896 103.294 20.9393Z" fill="black"/>
<path d="M5.29605 20.9393C5.29605 14.9826 24.3692 10.1177 41.3095 8.46975V7.89869C18.4951 7.89869 0 13.8133 0 21.1092C0 28.4052 18.4951 34.3198 41.3095 34.3198V33.7487C24.3679 32.1008 5.29605 26.896 5.29605 20.9393Z" fill="black"/>
</svg>
