<svg width="118" height="12" viewBox="0 0 118 12" fill="none" xmlns="http://www.w3.org/2000/svg">
<g id="_&#208;&#161;&#208;&#187;&#208;&#190;&#208;&#185;_1" clip-path="url(#clip0_212_364)">
<g id="Group">
<path id="Vector" d="M58.877 10.7625C56.2514 10.7625 53.7366 10.3142 51.7967 9.49948C49.5144 8.54171 48.2573 7.19678 48.2573 5.71327C48.2573 4.22976 49.6225 2.79058 52.0034 1.8429C53.9103 1.08263 56.3511 0.664062 58.8765 0.664062C61.4019 0.664062 63.8427 1.08263 65.7496 1.8429C68.1299 2.79058 69.4956 4.20115 69.4956 5.71327C69.4956 7.2254 68.2386 8.54171 65.9563 9.49948C64.0163 10.3136 61.5021 10.7625 58.8765 10.7625H58.877ZM58.877 1.41984C56.4452 1.41984 54.103 1.81934 52.2824 2.54482C50.2035 3.37242 49.0114 4.52714 49.0114 5.71327C49.0114 6.89941 50.1329 7.9823 52.088 8.80261C53.9378 9.57915 56.3483 10.0067 58.8765 10.0067C61.4047 10.0067 63.8152 9.57915 65.665 8.80261C67.6201 7.9823 68.7416 6.8562 68.7416 5.71327C68.7416 4.57034 67.5495 3.37242 65.4712 2.54482C63.6511 1.81934 61.3094 1.41984 58.877 1.41984Z" fill="white"/>
<path id="Vector_2" d="M58.8767 3.72303C57.3165 3.72303 55.814 3.56929 54.4119 3.26574C53.543 3.07778 52.7329 2.83539 52.0036 2.54475L51.1229 2.19407L52.0036 1.84339C53.9105 1.08312 56.3518 0.664551 58.8772 0.664551C61.4026 0.664551 63.8434 1.08312 65.7503 1.84339L66.631 2.19463L65.7503 2.54531C65.0221 2.83539 64.2114 3.07834 63.342 3.2663C61.9415 3.56985 60.4391 3.72359 58.8772 3.72359L58.8767 3.72303ZM53.2842 2.19407C53.6937 2.31919 54.1239 2.43085 54.5704 2.52736C55.9205 2.81968 57.3692 2.96781 58.8761 2.96781C60.383 2.96781 61.8328 2.81968 63.1812 2.52792C63.6283 2.43085 64.0585 2.31919 64.468 2.19407C62.8272 1.6919 60.8822 1.41977 58.8761 1.41977C56.87 1.41977 54.925 1.69134 53.2836 2.19407H53.2842Z" fill="white"/>
<path id="Vector_3" d="M58.8768 10.7619C56.2512 10.7619 53.7364 10.3136 51.7965 9.49894L50.9668 9.1505L51.7965 8.80207C52.5454 8.48786 53.3841 8.22583 54.2905 8.02272C55.7257 7.70178 57.2685 7.53906 58.8768 7.53906C60.4852 7.53906 62.0274 7.70178 63.4621 8.02272C64.3679 8.22527 65.2071 8.4873 65.9566 8.80207L66.7863 9.1505L65.9566 9.49894C64.0167 10.3131 61.5025 10.7619 58.8768 10.7619ZM53.0255 9.1505C54.719 9.70541 56.757 10.0062 58.8768 10.0062C60.9966 10.0062 63.0341 9.70541 64.7276 9.1505C64.276 9.00237 63.7982 8.8722 63.2974 8.75999C61.9165 8.45083 60.4291 8.29428 58.8763 8.29428C57.3234 8.29428 55.8355 8.45083 54.4546 8.75999C53.9543 8.8722 53.4765 9.00237 53.025 9.1505H53.0255Z" fill="white"/>
<path id="Vector_4" d="M58.8768 10.7628C55.6377 10.7628 53.0026 8.49772 53.0026 5.71418C53.0026 2.93063 55.6377 0.665527 58.8768 0.665527C62.1159 0.665527 64.7511 2.93063 64.7511 5.71418C64.7511 8.49772 62.1159 10.7628 58.8768 10.7628ZM58.8768 1.42019C56.0534 1.42019 53.7566 3.34639 53.7566 5.71361C53.7566 8.08083 56.0534 10.007 58.8768 10.007C61.7002 10.007 63.9971 8.08083 63.9971 5.71361C63.9971 3.34639 61.7002 1.42019 58.8768 1.42019Z" fill="white"/>
<path id="Vector_5" d="M59.2537 1.04248H58.4996V10.3851H59.2537V1.04248Z" fill="white"/>
<path id="Vector_6" d="M69.1188 5.33545H48.6345V6.09067H69.1188V5.33545Z" fill="white"/>
</g>
<g id="Group_2">
<path id="Vector_7" d="M35.4659 4.18994C35.5112 4.18994 35.5465 4.20285 35.5723 4.22866C35.5981 4.25447 35.611 4.29038 35.611 4.33582V5.47427C35.611 5.51971 35.5981 5.55506 35.5723 5.58087C35.5465 5.60724 35.5107 5.61959 35.4659 5.61959H33.1399C33.0945 5.61959 33.0592 5.60668 33.0329 5.58087C33.0071 5.55506 32.9943 5.51971 32.9943 5.47427V5.06075C32.9943 5.0153 33.0071 4.97995 33.0329 4.95414C33.0587 4.92833 33.0945 4.91543 33.1399 4.91543H33.7954L34.271 4.30721C34.3001 4.27186 34.3359 4.24324 34.378 4.22192C34.42 4.2006 34.4637 4.1905 34.509 4.1905H35.4659V4.18994ZM34.1494 7.48295C34.104 7.48295 34.0687 7.47005 34.043 7.44424C34.0166 7.41843 34.0043 7.38252 34.0043 7.33707V6.4859C34.0043 6.44046 34.0121 6.39445 34.0284 6.34732C34.0446 6.30018 34.0659 6.25923 34.0917 6.22332L34.4172 5.80475C34.4429 5.76884 34.4771 5.74078 34.5191 5.71946C34.5611 5.69814 34.6048 5.68804 34.6502 5.68804H35.4614C35.5068 5.68804 35.5421 5.70095 35.5684 5.72675C35.5942 5.75256 35.607 5.78847 35.607 5.83392V7.33651C35.607 7.38196 35.5942 7.41787 35.5684 7.44368C35.5426 7.46949 35.5068 7.48239 35.4614 7.48239H34.15L34.1494 7.48295Z" fill="white"/>
<path id="Vector_8" d="M35.9904 4.33582C35.9904 4.29038 36.0033 4.25503 36.0291 4.22866C36.0549 4.20285 36.0907 4.18994 36.1361 4.18994H40.0597C40.1051 4.18994 40.1488 4.2006 40.1908 4.22136C40.2328 4.24268 40.267 4.27074 40.2928 4.30665L40.7639 4.91486H41.4289C41.4742 4.91486 41.5095 4.92777 41.5359 4.95358C41.5616 4.97939 41.5745 5.0153 41.5745 5.06019V5.47371C41.5745 5.51915 41.5616 5.5545 41.5359 5.58031C41.5101 5.60668 41.4742 5.61903 41.4289 5.61903H37.8789C37.8335 5.61903 37.7898 5.60837 37.7478 5.58761C37.7058 5.56628 37.6716 5.53823 37.6458 5.50232L37.1842 4.91374H36.1355C36.0901 4.91374 36.0549 4.90084 36.0285 4.87503C36.0022 4.84922 35.9899 4.81331 35.9899 4.76786V4.33526L35.9904 4.33582ZM36.1361 7.48295C36.0907 7.48295 36.0554 7.47005 36.0291 7.44424C36.0033 7.41843 35.9904 7.38252 35.9904 7.33707V5.83448C35.9904 5.78904 36.0033 5.75369 36.0291 5.72732C36.0549 5.70095 36.0907 5.6886 36.1361 5.6886H37.4083C37.4537 5.6886 37.489 5.70151 37.5153 5.72732C37.5411 5.75313 37.5539 5.78904 37.5539 5.83448V6.05331H40.0597C40.1051 6.05331 40.1488 6.06397 40.1908 6.08473C40.2328 6.10605 40.2687 6.1341 40.2978 6.17001L40.7639 6.75859H41.4289C41.4742 6.75859 41.5095 6.7715 41.5359 6.79731C41.5616 6.82368 41.5745 6.85903 41.5745 6.90447V7.33707C41.5745 7.38252 41.5616 7.41843 41.5359 7.44424C41.5101 7.47005 41.4742 7.48295 41.4289 7.48295H36.1355H36.1361Z" fill="white"/>
<path id="Vector_9" d="M44.8237 4.18994C44.882 4.18994 44.9111 4.2079 44.9111 4.24324C44.9111 4.25952 44.9027 4.28084 44.8871 4.30665L42.7067 7.36625C42.681 7.4016 42.6474 7.43021 42.607 7.45153C42.5667 7.47285 42.5236 7.48295 42.4782 7.48295H41.9101C41.8519 7.48295 41.8228 7.465 41.8228 7.42965C41.8228 7.40721 41.8306 7.38589 41.8468 7.36625L44.0271 4.30665C44.0529 4.2713 44.086 4.24268 44.1263 4.22136C44.1666 4.20004 44.2098 4.18994 44.2551 4.18994H44.8232H44.8237Z" fill="white"/>
</g>
<g id="Group_3">
<path id="Vector_10" d="M74.7627 4.18994C74.821 4.18994 74.8501 4.2079 74.8501 4.24324C74.8501 4.25952 74.8417 4.28084 74.826 4.30665L72.6457 7.36625C72.6199 7.4016 72.5863 7.43021 72.546 7.45153C72.5057 7.47285 72.4625 7.48295 72.4172 7.48295H71.8491C71.7909 7.48295 71.7617 7.465 71.7617 7.42965C71.7617 7.40721 71.7696 7.38589 71.7858 7.36625L73.9661 4.30665C73.9919 4.2713 74.0249 4.24268 74.0653 4.22136C74.1056 4.20004 74.1487 4.18994 74.1941 4.18994H74.7622H74.7627Z" fill="white"/>
<path id="Vector_11" d="M75.0977 4.33582C75.0977 4.29038 75.1106 4.25503 75.1364 4.22866C75.1621 4.20285 75.198 4.18994 75.2434 4.18994H79.167C79.2124 4.18994 79.2561 4.2006 79.2981 4.22136C79.3401 4.24268 79.3743 4.27074 79.4001 4.30665L79.8712 4.91486H80.5362C80.5815 4.91486 80.6168 4.92777 80.6432 4.95358C80.6695 4.97939 80.6818 5.0153 80.6818 5.06019V5.47371C80.6818 5.51915 80.6689 5.5545 80.6432 5.58031C80.6174 5.60668 80.5815 5.61903 80.5362 5.61903H76.9862C76.9408 5.61903 76.8971 5.60837 76.8551 5.58761C76.8131 5.56628 76.7789 5.53823 76.7531 5.50232L76.2915 4.91374H75.2428C75.1974 4.91374 75.1621 4.90084 75.1358 4.87503C75.11 4.84922 75.0972 4.81331 75.0972 4.76786V4.33526L75.0977 4.33582ZM75.2434 7.48295C75.198 7.48295 75.1627 7.47005 75.1364 7.44424C75.1106 7.41843 75.0977 7.38252 75.0977 7.33707V5.83448C75.0977 5.78904 75.1106 5.75369 75.1364 5.72732C75.1621 5.70151 75.198 5.6886 75.2434 5.6886H76.5156C76.561 5.6886 76.5963 5.70151 76.6226 5.72732C76.6484 5.75313 76.6612 5.78904 76.6612 5.83448V6.05331H79.167C79.2124 6.05331 79.2561 6.06397 79.2981 6.08473C79.3401 6.10605 79.376 6.1341 79.4051 6.17001L79.8712 6.75859H80.5362C80.5815 6.75859 80.6168 6.7715 80.6432 6.79731C80.6689 6.82368 80.6818 6.85903 80.6818 6.90447V7.33707C80.6818 7.38252 80.6689 7.41843 80.6432 7.44424C80.6174 7.47005 80.5815 7.48295 80.5362 7.48295H75.2428H75.2434Z" fill="white"/>
<path id="Vector_12" d="M81.0612 4.33582C81.0612 4.29038 81.0741 4.25503 81.0999 4.22866C81.1256 4.20285 81.1615 4.18994 81.2069 4.18994H85.1305C85.1759 4.18994 85.2196 4.2006 85.2616 4.22136C85.3036 4.24268 85.3378 4.27074 85.3636 4.30665L85.8347 4.91486H86.4997C86.545 4.91486 86.5803 4.92777 86.6067 4.95358C86.6324 4.97939 86.6453 5.0153 86.6453 5.06019V5.47371C86.6453 5.51915 86.6324 5.5545 86.6067 5.58031C86.5809 5.60668 86.545 5.61903 86.4997 5.61903H82.9497C82.9043 5.61903 82.8606 5.60837 82.8186 5.58761C82.7766 5.56628 82.7424 5.53823 82.7166 5.50232L82.255 4.91374H81.2063C81.1609 4.91374 81.1257 4.90084 81.0993 4.87503C81.073 4.84922 81.0607 4.81331 81.0607 4.76786V4.33526L81.0612 4.33582ZM81.2069 7.48295C81.1615 7.48295 81.1262 7.47005 81.0999 7.44424C81.0741 7.41843 81.0612 7.38252 81.0612 7.33707V5.83448C81.0612 5.78904 81.0741 5.75369 81.0999 5.72732C81.1256 5.70095 81.1615 5.6886 81.2069 5.6886H82.4791C82.5245 5.6886 82.5598 5.70151 82.5861 5.72732C82.6124 5.75313 82.6248 5.78904 82.6248 5.83448V6.05331H85.1305C85.1759 6.05331 85.2196 6.06397 85.2616 6.08473C85.3036 6.10605 85.3395 6.1341 85.3686 6.17001L85.8347 6.75859H86.4997C86.545 6.75859 86.5803 6.7715 86.6067 6.79731C86.6324 6.82368 86.6453 6.85903 86.6453 6.90447V7.33707C86.6453 7.38252 86.6324 7.41843 86.6067 7.44424C86.5809 7.47005 86.545 7.48295 86.4997 7.48295H81.2063H81.2069Z" fill="white"/>
</g>
<path id="Vector_13" d="M95.777 7.44335C95.6146 8.44713 96.3456 9.34263 97.1854 9.83077C97.2666 9.8577 97.3478 9.91213 97.4291 9.96655C97.8083 10.1562 98.1876 10.2651 98.6206 10.3464C98.8643 10.3733 99.0811 10.4008 99.3248 10.4278C99.6771 10.4547 100.029 10.4008 100.381 10.4547C100.381 10.4816 100.381 10.5091 100.408 10.5091C100.354 10.5635 100.327 10.6174 100.273 10.6449C99.8934 10.862 99.4872 10.9434 99.0536 11.0248C98.1327 11.1605 97.2117 11.0248 96.372 10.6718C95.5053 10.2651 94.7737 9.66806 94.2594 8.82699C93.9071 8.22999 93.7446 7.60607 93.7177 6.92771C93.7177 5.897 94.1782 4.83879 95.0992 4.29622C94.8555 4.2418 94.5844 4.2418 94.3407 4.32316C93.4466 4.59416 92.8511 5.32694 92.4987 6.168C92.3632 6.52093 92.2819 6.84636 92.2007 7.22621C92.0926 7.79571 92.1738 8.33828 92.0926 8.90835C91.9845 8.93528 91.957 8.82699 91.9032 8.74563C91.5509 8.09477 91.4696 7.362 91.4971 6.65671C91.5514 5.5985 91.9032 4.56779 92.6074 3.72672C93.2304 2.9945 93.9889 2.47887 94.9636 2.28866C96.2364 2.04459 97.6178 2.5058 98.2682 3.61787C98.3495 3.18359 98.2413 2.74987 98.0245 2.37002C97.591 1.6378 96.9142 1.17659 96.1288 0.905022C95.7765 0.769239 95.3978 0.715375 95.0185 0.66095C94.558 0.606525 94.0975 0.687882 93.6371 0.579593C93.664 0.498235 93.7183 0.44381 93.7726 0.416878C94.26 0.145312 94.8017 0.063955 95.3434 0.0100908C95.777 -0.0168413 96.2101 0.0100908 96.6705 0.0914482C97.9977 0.362453 99.108 1.0683 99.7853 2.2348C100.138 2.83179 100.3 3.45572 100.327 4.13351C100.354 5.16422 99.8665 6.24936 98.9455 6.765C99.8934 6.98214 100.733 6.27686 101.248 5.49021C101.302 5.40886 101.329 5.3275 101.384 5.24614C101.627 4.81186 101.736 4.35065 101.844 3.83557C101.952 3.26607 101.871 2.7235 101.952 2.15344H102.006C102.44 2.66908 102.494 3.37436 102.548 3.99829C102.575 4.51393 102.494 4.97514 102.386 5.49021C102.278 5.92449 102.115 6.30379 101.898 6.68364C101.627 7.17179 101.275 7.55164 100.842 7.9315C99.8396 8.74507 98.5125 9.07106 97.2935 8.66371C96.6705 8.44657 96.1288 8.01285 95.7765 7.44279L95.777 7.44335Z" fill="white"/>
<g id="Group_4">
<path id="Vector_14" d="M114.338 7.98266C114.407 8.05224 114.499 8.09039 114.596 8.09039C114.694 8.09039 114.785 8.05224 114.854 7.98266C114.922 7.91365 114.96 7.82219 114.96 7.72512C114.96 7.62806 114.922 7.5366 114.854 7.46759L114.346 6.95419C114.635 6.5575 114.806 6.06824 114.806 5.53913C114.806 5.01003 114.634 4.5174 114.344 4.12015L114.862 3.59497C115.002 3.45302 115.002 3.22185 114.862 3.0799C114.793 3.01032 114.702 2.97217 114.605 2.97217C114.507 2.97217 114.416 3.01032 114.347 3.0799L113.829 3.60451C113.439 3.3178 112.959 3.14779 112.441 3.14779C111.923 3.14779 111.436 3.32004 111.044 3.61181L110.527 3.08831C110.458 3.01874 110.367 2.98058 110.27 2.98058C110.173 2.98058 110.081 3.01874 110.012 3.08831C109.944 3.15733 109.907 3.24878 109.907 3.34585C109.907 3.44292 109.944 3.53494 110.013 3.60339L110.533 4.13025C110.247 4.52581 110.077 5.01284 110.077 5.53913C110.077 6.06543 110.246 6.54909 110.53 6.94409L110.021 7.45917C109.88 7.60112 109.88 7.83229 110.021 7.97425C110.09 8.04382 110.181 8.08197 110.279 8.08197C110.376 8.08197 110.467 8.04382 110.536 7.97425L111.041 7.46366C111.433 7.75654 111.918 7.93048 112.442 7.93048C112.967 7.93048 113.443 7.75935 113.834 7.47095L114.34 7.98266H114.338ZM112.591 5.53913C112.591 5.62442 112.524 5.69343 112.441 5.69343C112.358 5.69343 112.291 5.62442 112.291 5.53913C112.291 5.45385 112.358 5.38484 112.441 5.38484C112.524 5.38484 112.591 5.45385 112.591 5.53913ZM113.15 5.86625C113.196 5.76637 113.221 5.65584 113.221 5.53913C113.221 5.42243 113.193 5.30123 113.143 5.19743C113.234 5.19294 113.318 5.15647 113.383 5.09139L113.821 4.64757C113.983 4.90567 114.079 5.2109 114.079 5.53857C114.079 5.86625 113.984 6.16867 113.824 6.42509L113.374 5.97005C113.314 5.90889 113.235 5.87354 113.15 5.86569V5.86625ZM112.868 4.57631C112.803 4.64252 112.767 4.72949 112.764 4.82207C112.665 4.77662 112.556 4.75081 112.441 4.75081C112.326 4.75081 112.21 4.7783 112.109 4.82656C112.106 4.73566 112.07 4.65037 112.005 4.58473L111.564 4.1381C111.818 3.97427 112.118 3.87776 112.441 3.87776C112.764 3.87776 113.056 3.97146 113.307 4.13137L112.868 4.57575V4.57631ZM111.49 5.0998C111.556 5.16601 111.642 5.20304 111.734 5.20641C111.687 5.30741 111.66 5.42018 111.66 5.53857C111.66 5.65696 111.684 5.75964 111.727 5.85671C111.641 5.86344 111.561 5.89879 111.499 5.96163L111.051 6.41443C110.894 6.15969 110.802 5.86008 110.802 5.53857C110.802 5.21707 110.895 4.91352 111.053 4.65823L111.489 5.0998H111.49ZM112.014 6.47727C112.075 6.41499 112.108 6.33588 112.116 6.25452C112.215 6.30053 112.325 6.3269 112.441 6.3269C112.557 6.3269 112.66 6.30221 112.757 6.25901C112.764 6.34429 112.799 6.42453 112.86 6.48569L113.312 6.94297C113.059 7.10456 112.761 7.19939 112.441 7.19939C112.121 7.19939 111.815 7.10232 111.56 6.9368L112.014 6.47727Z" fill="white"/>
<path id="Vector_15" d="M117.391 5.19363H117.017C116.851 2.91563 115.053 1.09041 112.804 0.911429V0.529329C112.804 0.3279 112.641 0.164062 112.441 0.164062C112.241 0.164062 112.078 0.3279 112.078 0.529329V0.911429C109.83 1.09041 108.032 2.91563 107.865 5.19363H107.492C107.292 5.19363 107.129 5.35747 107.129 5.5589C107.129 5.76033 107.292 5.92417 107.492 5.92417H107.869C108.053 8.18366 109.842 9.98867 112.078 10.1665V10.5486C112.078 10.7501 112.241 10.9139 112.441 10.9139C112.641 10.9139 112.804 10.7501 112.804 10.5486V10.1665C115.04 9.98867 116.829 8.18366 117.014 5.92417H117.391C117.591 5.92417 117.754 5.76033 117.754 5.5589C117.754 5.35747 117.591 5.19363 117.391 5.19363ZM112.441 8.4715C112.241 8.4715 112.078 8.63533 112.078 8.83676V9.43432C110.243 9.26038 108.777 7.7808 108.597 5.92417H109.176C109.376 5.92417 109.539 5.76033 109.539 5.5589C109.539 5.35747 109.376 5.19363 109.176 5.19363H108.594C108.757 3.31905 110.23 1.81983 112.078 1.64421V2.24176C112.078 2.44319 112.241 2.60703 112.441 2.60703C112.641 2.60703 112.804 2.44319 112.804 2.24176V1.64421C114.652 1.81983 116.126 3.31905 116.289 5.19363H115.699C115.499 5.19363 115.336 5.35747 115.336 5.5589C115.336 5.76033 115.499 5.92417 115.699 5.92417H116.285C116.105 7.7808 114.639 9.25982 112.804 9.43432V8.83676C112.804 8.63533 112.641 8.4715 112.441 8.4715Z" fill="white"/>
</g>
<path id="Vector_16" d="M21.9762 7.44335C22.1386 8.44713 21.4076 9.34263 20.5678 9.83077C20.4866 9.8577 20.4054 9.91213 20.3241 9.96655C19.9449 10.1562 19.5656 10.2651 19.1326 10.3464C18.8889 10.3733 18.6721 10.4008 18.4284 10.4278C18.076 10.4547 17.7242 10.4008 17.3719 10.4547C17.3719 10.4816 17.3719 10.5091 17.345 10.5091C17.3993 10.5635 17.4262 10.6174 17.4805 10.6449C17.8598 10.862 18.2659 10.9434 18.6995 11.0248C19.6205 11.1605 20.5415 11.0248 21.3812 10.6718C22.2479 10.2651 22.9795 9.66806 23.4937 8.82699C23.8461 8.22999 24.0086 7.60607 24.0355 6.92771C24.0355 5.897 23.575 4.83879 22.654 4.29622C22.8977 4.2418 23.1688 4.2418 23.4125 4.32316C24.3066 4.59416 24.9021 5.32694 25.2544 6.168C25.39 6.52093 25.4712 6.84636 25.5525 7.22621C25.6606 7.79571 25.5794 8.33828 25.6606 8.90835C25.7687 8.93528 25.7962 8.82699 25.8499 8.74563C26.2023 8.09477 26.2835 7.362 26.2561 6.65671C26.2017 5.5985 25.8499 4.56779 25.1458 3.72672C24.5228 2.9945 23.7643 2.47887 22.7896 2.28866C21.5168 2.04459 20.1353 2.5058 19.4849 3.61787C19.4037 3.18359 19.5118 2.74987 19.7286 2.37002C20.1622 1.6378 20.8389 1.17659 21.6243 0.905022C21.9767 0.769239 22.3554 0.715375 22.7347 0.66095C23.1952 0.606525 23.6556 0.687882 24.1161 0.579593C24.0892 0.498235 24.0349 0.44381 23.9806 0.416878C23.4932 0.145312 22.9515 0.063955 22.4097 0.0100908C21.9762 -0.0168413 21.5431 0.0100908 21.0826 0.0914482C19.7555 0.362453 18.6446 1.0683 17.9679 2.2348C17.6156 2.83179 17.4531 3.45572 17.4262 4.13351C17.3993 5.16422 17.8867 6.24936 18.8077 6.765C17.8598 6.98214 17.0201 6.27686 16.5052 5.49021C16.4509 5.40886 16.424 5.3275 16.3697 5.24614C16.126 4.81186 16.0173 4.35065 15.9092 3.83557C15.8011 3.26607 15.8823 2.7235 15.8011 2.15344H15.7467C15.3131 2.66908 15.2594 3.37436 15.205 3.99829C15.1781 4.51393 15.2594 4.97514 15.3675 5.49021C15.4756 5.92449 15.6386 6.30379 15.8548 6.68364C16.126 7.17179 16.4778 7.55164 16.9114 7.9315C17.9136 8.74507 19.2407 9.07106 20.4597 8.66371C21.0826 8.44657 21.6243 8.01285 21.9767 7.44279L21.9762 7.44335Z" fill="white"/>
<g id="Group_5">
<path id="Vector_17" d="M3.92043 7.47095C4.31145 7.75935 4.7921 7.93048 5.31197 7.93048C5.83183 7.93048 6.32089 7.75654 6.71359 7.46366L7.21777 7.97425C7.28667 8.04382 7.37799 8.08197 7.47546 8.08197C7.57294 8.08197 7.66425 8.04382 7.73315 7.97425C7.87376 7.83229 7.87376 7.60112 7.73315 7.45917L7.22449 6.94409C7.50907 6.54909 7.67713 6.06375 7.67713 5.53913C7.67713 5.01452 7.50739 4.52581 7.22113 4.13025L7.74156 3.60339C7.80934 3.53438 7.84743 3.44292 7.84743 3.34585C7.84743 3.24878 7.8099 3.15733 7.74212 3.08831C7.67321 3.01874 7.5819 2.98058 7.48443 2.98058C7.38695 2.98058 7.29564 3.01874 7.22729 3.08831L6.71023 3.61181C6.31865 3.3206 5.8352 3.14779 5.31309 3.14779C4.79098 3.14779 4.31593 3.3178 3.92547 3.60451L3.40729 3.0799C3.33838 3.01032 3.24707 2.97217 3.14959 2.97217C3.05212 2.97217 2.96081 3.01032 2.8919 3.0799C2.75185 3.22185 2.75185 3.45302 2.8919 3.59497L3.41065 4.12015C3.1199 4.5174 2.94792 5.00835 2.94792 5.53913C2.94792 6.06992 3.11878 6.5575 3.40785 6.95419L2.90031 7.46759C2.83196 7.5366 2.79443 7.62806 2.79443 7.72512C2.79443 7.82219 2.83196 7.91365 2.90031 7.98266C2.96921 8.05224 3.06052 8.09039 3.158 8.09039C3.25547 8.09039 3.34679 8.05224 3.41569 7.98266L3.92155 7.47095H3.92043ZM5.31197 5.38484C5.39488 5.38484 5.4621 5.45385 5.4621 5.53913C5.4621 5.62442 5.39488 5.69343 5.31197 5.69343C5.22906 5.69343 5.16183 5.62442 5.16183 5.53913C5.16183 5.45385 5.22906 5.38484 5.31197 5.38484ZM4.37867 5.97061L3.92939 6.42565C3.76862 6.16867 3.67394 5.86513 3.67394 5.53913C3.67394 5.21314 3.76974 4.90567 3.93219 4.64813L4.37027 5.09195C4.43469 5.15704 4.51929 5.19351 4.61004 5.19799C4.56018 5.30123 4.53161 5.41682 4.53161 5.5397C4.53161 5.66257 4.55738 5.76693 4.60275 5.86681C4.51816 5.87466 4.43918 5.91001 4.37867 5.97117V5.97061ZM4.4459 4.13193C4.69743 3.97202 4.99377 3.87832 5.31197 3.87832C5.63016 3.87832 5.93491 3.97483 6.18868 4.13866L5.7478 4.58529C5.68338 4.65037 5.64753 4.73622 5.64361 4.82712C5.54277 4.77942 5.43073 4.75137 5.31197 4.75137C5.19321 4.75137 5.08789 4.77718 4.98929 4.82263C4.98649 4.73005 4.95008 4.64308 4.8851 4.57687L4.4459 4.13249V4.13193ZM6.69902 4.65879C6.85756 4.91465 6.95055 5.21595 6.95055 5.53913C6.95055 5.86232 6.85812 6.16026 6.70127 6.41499L6.25367 5.96219C6.19204 5.89991 6.11137 5.864 6.0251 5.85727C6.06768 5.75964 6.09233 5.65247 6.09233 5.53913C6.09233 5.42018 6.06544 5.30797 6.01838 5.20697C6.11081 5.20361 6.19709 5.16657 6.26207 5.10037L6.6979 4.65879H6.69902ZM6.19316 6.9368C5.93827 7.10232 5.63632 7.19939 5.31197 7.19939C4.98761 7.19939 4.69407 7.10456 4.44142 6.94297L4.8935 6.48569C4.954 6.42397 4.98873 6.34429 4.99602 6.25901C5.09293 6.30221 5.19937 6.3269 5.31197 6.3269C5.42457 6.3269 5.53773 6.30053 5.63688 6.25452C5.64473 6.33588 5.67722 6.41499 5.73884 6.47727L6.19316 6.9368Z" fill="white"/>
<path id="Vector_18" d="M0 5.5589C0 5.76033 0.163018 5.92417 0.36301 5.92417H0.740025C0.924331 8.18366 2.71361 9.98867 4.94937 10.1665V10.5486C4.94937 10.7501 5.11239 10.9139 5.31238 10.9139C5.51237 10.9139 5.67539 10.7501 5.67539 10.5486V10.1665C7.91115 9.98867 9.70043 8.18366 9.88474 5.92417H10.2618C10.4617 5.92417 10.6248 5.76033 10.6248 5.5589C10.6248 5.35747 10.4617 5.19363 10.2618 5.19363H9.8881C9.72172 2.91563 7.92404 1.09041 5.67539 0.911429V0.529329C5.67539 0.3279 5.51237 0.164062 5.31238 0.164062C5.11239 0.164062 4.94937 0.3279 4.94937 0.529329V0.911429C2.70073 1.09041 0.903603 2.91563 0.737224 5.19363H0.36357C0.163579 5.19363 0.0005602 5.35747 0.0005602 5.5589H0ZM4.94937 8.83676V9.43432C3.11415 9.26038 1.64811 7.7808 1.46829 5.92417H2.05482C2.25481 5.92417 2.41782 5.76033 2.41782 5.5589C2.41782 5.35747 2.25481 5.19363 2.05482 5.19363H1.46492C1.62794 3.31905 3.10127 1.81983 4.94937 1.64421V2.24176C4.94937 2.44319 5.11239 2.60703 5.31238 2.60703C5.51237 2.60703 5.67539 2.44319 5.67539 2.24176V1.64421C7.52349 1.81983 8.99682 3.31905 9.15984 5.19363H8.57723C8.37724 5.19363 8.21422 5.35747 8.21422 5.5589C8.21422 5.76033 8.37724 5.92417 8.57723 5.92417H9.15704C8.97721 7.7808 7.51117 9.25982 5.67539 9.43432V8.83676C5.67539 8.63533 5.51237 8.4715 5.31238 8.4715C5.11239 8.4715 4.94937 8.63533 4.94937 8.83676Z" fill="white"/>
</g>
</g>
<defs>
<clipPath id="clip0_212_364">
<rect width="117.754" height="11.0758" fill="white"/>
</clipPath>
</defs>
</svg>
