<svg width="44" height="44" viewBox="0 0 44 44" fill="none" xmlns="http://www.w3.org/2000/svg">
<g id="Vector">
<path d="M29.6011 9.16441C33.8274 11.5877 36.764 16.0134 37.1106 21.1386C36.7645 16.0134 33.8274 11.5877 29.6011 9.16441Z" fill="black"/>
<path d="M37.1397 21.7158H40.5947C40.5579 20.1657 40.3288 18.6627 39.9306 17.2292C40.3288 18.6627 40.5579 20.1657 40.5947 21.7152H37.1397V21.7158Z" fill="black"/>
<path d="M3.76269 22.2853C3.8312 32.2273 11.8157 40.3232 21.7147 40.5701C11.8152 40.3227 3.8312 32.2268 3.76269 22.2853Z" fill="black"/>
<path d="M27.1747 4.42679C29.9763 5.21716 32.509 6.65475 34.6004 8.5678C32.509 6.65475 29.9763 5.21665 27.1747 4.42679Z" fill="black"/>
<path d="M22.2848 3.73815H22.2842V7.19155H22.2848V3.73815Z" fill="black"/>
<path d="M41.1642 21.7158C41.0532 16.8084 39.0901 12.2114 35.6076 8.72884C32.0453 5.16757 27.3174 3.19522 22.2842 3.16864V0H21.7147V3.17273C16.8176 3.2898 12.2303 5.25192 8.75338 8.72884C5.27084 12.2114 3.30769 16.8084 3.19727 21.7158H0V22.2853H3.19318C3.22641 27.3092 5.19773 32.0274 8.75338 35.5835C12.2303 39.0599 16.8176 41.0226 21.7147 41.1396V44H22.2842V41.1437C27.3174 41.1166 32.0453 39.1458 35.6076 35.5835C39.1637 32.0274 41.1345 27.3092 41.1683 22.2853H44V21.7158H41.1642ZM4.2407 26.3363C4.24172 26.3419 4.24326 26.3481 4.24479 26.3532H4.24428C4.24326 26.3475 4.24172 26.3414 4.2407 26.3363ZM4.78823 28.2212C4.79437 28.2386 4.8005 28.256 4.80664 28.2734H4.80613C4.79999 28.256 4.79386 28.2386 4.78823 28.2212ZM4.81993 28.3127C4.81993 28.3127 4.8184 28.3086 4.81788 28.3066C4.81891 28.3086 4.81942 28.3107 4.82044 28.3127C4.82658 28.3317 4.83373 28.3501 4.84038 28.3685C4.83373 28.3501 4.82658 28.3317 4.81993 28.3127ZM4.9779 28.7396C4.97535 28.733 4.97279 28.7258 4.97023 28.7192C4.9733 28.7258 4.97586 28.733 4.97841 28.7396C4.99784 28.7913 5.01778 28.8429 5.03823 28.894C5.01829 28.8429 4.99835 28.7913 4.97841 28.7396H4.9779ZM14.5426 38.9168C14.5048 38.8989 14.4664 38.8815 14.4281 38.8636C14.426 38.8626 14.424 38.8616 14.422 38.8605C14.4194 38.8595 14.4168 38.858 14.4143 38.8565C14.5078 38.9004 14.6024 38.9439 14.6975 38.9858C14.6791 38.9776 14.6612 38.97 14.6428 38.9618C14.6091 38.9469 14.5758 38.9316 14.5426 38.9168ZM15.0457 39.1376C15.0421 39.1361 15.039 39.1351 15.0359 39.1335C15.0339 39.1325 15.0324 39.132 15.0308 39.131C15.036 39.133 15.0406 39.1351 15.0457 39.1371C15.0477 39.1376 15.0498 39.1387 15.0513 39.1397C15.0498 39.1397 15.0477 39.1382 15.0457 39.1376ZM15.199 39.201C15.196 39.2 15.1934 39.1985 15.1903 39.1969C15.1903 39.1969 15.1914 39.1969 15.1919 39.1975C15.2067 39.2041 15.2215 39.2102 15.2369 39.2164C15.2277 39.2128 15.218 39.2087 15.2082 39.2051C15.2052 39.2036 15.2021 39.2026 15.199 39.201ZM15.5564 39.3437C15.6934 39.3963 15.8309 39.448 15.9695 39.4981C15.8309 39.4485 15.6934 39.3968 15.5564 39.3437ZM17.1709 39.8835C17.1233 39.8702 17.0763 39.8564 17.0287 39.8426C17.0185 39.8396 17.0078 39.8365 16.997 39.8334C16.9429 39.8176 16.8887 39.8012 16.8345 39.7849C16.7736 39.7659 16.7128 39.747 16.652 39.7281H16.6515C16.7046 39.7445 16.7578 39.7608 16.811 39.7772C16.8728 39.7961 16.9352 39.8145 16.997 39.8329C17.0057 39.8355 17.0144 39.838 17.0236 39.8406C17.0722 39.8549 17.1213 39.8692 17.1704 39.883C17.1724 39.8835 17.175 39.8846 17.1775 39.8851C17.1791 39.8856 17.1806 39.8861 17.1821 39.8866C17.1785 39.8856 17.1744 39.8846 17.1709 39.8835ZM17.5206 39.9786C17.5206 39.9786 17.5165 39.9776 17.5144 39.9766C17.516 39.9771 17.518 39.9776 17.52 39.9781C17.5236 39.9791 17.5267 39.9796 17.5303 39.9807C17.5267 39.9807 17.5236 39.9796 17.5206 39.9786ZM17.6964 40.0236C17.6872 40.0216 17.678 40.019 17.6688 40.0165C17.678 40.0185 17.6867 40.0211 17.6959 40.0231C17.7343 40.0328 17.7726 40.0425 17.8109 40.0517C17.7726 40.0425 17.7343 40.0333 17.6964 40.0236ZM18.1811 40.1381C18.1754 40.1371 18.1703 40.1356 18.1647 40.1345C18.1443 40.1305 18.1243 40.1259 18.1044 40.1207C18.086 40.1172 18.0681 40.1131 18.0497 40.1085C18.0129 40.1003 17.9761 40.0911 17.9393 40.0824C17.9582 40.0865 17.9771 40.0911 17.996 40.0952C18.0323 40.1039 18.0686 40.1126 18.1044 40.1207C18.1412 40.1294 18.178 40.1376 18.2148 40.1453C18.2036 40.1432 18.1923 40.1407 18.1811 40.1381ZM18.3232 40.1693C18.3232 40.1693 18.3258 40.1693 18.3268 40.1698C18.3258 40.1698 18.3242 40.1698 18.3232 40.1693ZM18.4479 40.1949C18.4479 40.1949 18.4484 40.1949 18.449 40.1954C18.449 40.1954 18.4479 40.1954 18.4474 40.1949H18.4479ZM18.5824 40.223H18.5814C18.5752 40.222 18.5686 40.2204 18.5619 40.2189C18.5558 40.2179 18.5492 40.2163 18.543 40.2148C18.5527 40.2163 18.5625 40.2184 18.5722 40.2204C18.6069 40.2276 18.6417 40.2337 18.6759 40.2409C18.6448 40.2348 18.6136 40.2291 18.5824 40.223ZM19.1846 40.3324C19.1846 40.3324 19.1821 40.3319 19.181 40.3319C19.178 40.3314 19.1744 40.3309 19.1713 40.3304C19.1683 40.3304 19.1657 40.3293 19.1626 40.3288C19.1504 40.3268 19.1376 40.3242 19.1253 40.3222L19.1458 40.3252H19.1494L19.1657 40.3283L19.1928 40.3329C19.1979 40.3339 19.2035 40.335 19.2092 40.336C19.2051 40.3355 19.201 40.335 19.1969 40.3344C19.1928 40.3339 19.1887 40.3334 19.1846 40.3324ZM20.3513 40.4858C20.3083 40.4817 20.2654 40.4771 20.2224 40.4725C20.2051 40.4704 20.1877 40.4689 20.1708 40.4669C20.1677 40.4663 20.1642 40.4663 20.1611 40.4658C20.158 40.4658 20.1555 40.4658 20.1524 40.4648C20.1381 40.4633 20.1233 40.4612 20.1089 40.4597C20.1013 40.4587 20.0931 40.4582 20.0854 40.4571H20.0829C20.0829 40.4571 20.0798 40.4566 20.0783 40.4566C20.0767 40.4566 20.0757 40.4566 20.0742 40.4566C20.0645 40.4556 20.0558 40.4546 20.0461 40.4531C20.0527 40.4531 20.0594 40.4546 20.066 40.4551C20.0691 40.4551 20.0726 40.4551 20.0757 40.4561C20.087 40.4577 20.0977 40.4592 20.1089 40.4602C20.1268 40.4622 20.1452 40.4643 20.1631 40.4658C20.1688 40.4658 20.1739 40.4674 20.179 40.4674C20.1856 40.4684 20.1918 40.4689 20.1984 40.4699C20.2061 40.4709 20.2143 40.4715 20.2219 40.4725C20.2506 40.4755 20.2787 40.4786 20.3068 40.4812C20.3211 40.4827 20.3354 40.4842 20.3492 40.4853C20.3584 40.4863 20.3681 40.4873 20.3779 40.4883C20.3876 40.4893 20.3973 40.4904 20.407 40.4914C20.3881 40.4899 20.3697 40.4883 20.3513 40.4863V40.4858ZM20.7925 40.5241C20.7255 40.519 20.659 40.5139 20.5926 40.5083C20.5844 40.5072 20.5762 40.5067 20.5685 40.5062C20.568 40.5062 20.567 40.5062 20.5665 40.5062H20.5639L20.5655 40.5057H20.5665L20.568 40.5062C20.5762 40.5062 20.5839 40.5072 20.5921 40.5083C20.6539 40.5134 20.7158 40.5185 20.7781 40.5231C20.7827 40.5236 20.7873 40.5241 20.7925 40.5241C20.8175 40.5262 20.8431 40.5282 20.8686 40.5297C20.8431 40.5282 20.818 40.5267 20.7925 40.5246V40.5241ZM21.0455 40.5415C21.0338 40.5405 21.022 40.54 21.0103 40.5389C20.9995 40.5379 20.9888 40.5374 20.978 40.5369C20.9852 40.5369 20.9918 40.5374 20.999 40.5379C21.0026 40.5379 21.0067 40.5384 21.0103 40.5384C21.022 40.5394 21.0338 40.54 21.0455 40.541C21.0624 40.542 21.0798 40.543 21.0972 40.544C21.0798 40.5435 21.0624 40.5425 21.0455 40.5415ZM21.7147 40.5701C21.589 40.5671 21.4637 40.5625 21.3385 40.5568C21.3206 40.5563 21.3022 40.5553 21.2843 40.5543C21.2654 40.5533 21.2459 40.5527 21.227 40.5512C21.2173 40.5507 21.2066 40.5502 21.1968 40.5492H21.1999C21.203 40.5497 21.2061 40.5497 21.2096 40.5497C21.2153 40.5502 21.2214 40.5507 21.227 40.5507C21.25 40.5517 21.273 40.5533 21.2955 40.5543C21.3098 40.5553 21.3241 40.5558 21.3385 40.5563C21.4637 40.5619 21.589 40.5665 21.7147 40.5696V40.5701ZM21.7147 32.6066C19.1468 32.4946 16.7363 31.4558 14.8846 29.6527L14.4879 30.0612C16.4464 31.9681 18.9975 33.0637 21.7147 33.1761V36.2185C14.2134 35.9736 8.17926 29.8296 8.11075 22.2853H14.242C14.2747 23.3972 14.695 24.4596 15.4373 25.2918L16.1049 24.6963C15.5094 24.0286 15.1689 23.1769 15.1367 22.2853H19.9586C20.0302 23.249 20.7689 24.0276 21.7147 24.1595V32.6066ZM21.7147 11.1362C18.8283 11.2595 16.0748 12.5232 14.0999 14.6464L14.517 15.0344C16.3846 13.0258 18.9863 11.829 21.7147 11.7063V20.1038C20.8564 20.2235 20.1682 20.8753 19.9944 21.7158H15.1586C15.2614 20.8104 15.6862 19.9591 16.3585 19.3339L15.7496 18.678C14.8943 19.473 14.3657 20.5614 14.2589 21.7158H8.1174C8.34592 14.3146 14.3177 8.33519 21.7147 8.09337V11.1362ZM21.7147 7.19769C13.8238 7.44052 7.45075 13.8207 7.22171 21.7158H3.76678C3.99786 11.9164 11.9195 3.98713 21.7147 3.74276V7.19769ZM37.1397 21.7152H40.5947L37.1397 21.7158V21.7152ZM36.7635 18.7915C36.6929 18.4868 36.6137 18.1857 36.5252 17.8886C36.6137 18.1857 36.6934 18.4873 36.7635 18.7915ZM35.3397 15.0349C35.3443 15.0436 35.3489 15.0518 35.353 15.06C35.355 15.0636 35.3571 15.0676 35.3586 15.0712C35.3525 15.059 35.3458 15.0472 35.3392 15.0349C35.3371 15.0319 35.3351 15.0283 35.3335 15.0247C35.3356 15.0283 35.3376 15.0319 35.3397 15.0349ZM35.2666 14.9025C35.2666 14.9025 35.263 14.8969 35.2615 14.8943C35.2589 14.8897 35.2563 14.8851 35.2538 14.8805C35.2579 14.8872 35.262 14.8938 35.2655 14.9005C35.2655 14.901 35.2655 14.9015 35.2666 14.9025ZM35.2221 14.8228C35.2267 14.8309 35.2313 14.8391 35.2359 14.8473C35.2303 14.8391 35.2257 14.8309 35.2216 14.8228C35.2211 14.8217 35.22 14.8207 35.22 14.8197C35.2211 14.8207 35.2216 14.8217 35.2221 14.8228ZM35.1388 14.6776C35.1388 14.6776 35.1408 14.6817 35.1418 14.6837C35.1372 14.6755 35.1326 14.6679 35.128 14.6597C35.1321 14.6658 35.1357 14.672 35.1388 14.6776ZM35.038 14.5063C35.0273 14.4889 35.0166 14.4715 35.0058 14.4542C35.0043 14.4516 35.0028 14.4491 35.0017 14.4465C35.0145 14.4664 35.0263 14.4864 35.038 14.5063ZM34.9767 14.4041C34.9767 14.4041 34.9798 14.4097 34.9818 14.4128C34.9823 14.4138 34.9828 14.4148 34.9833 14.4158C34.9828 14.4148 34.9818 14.4138 34.9813 14.4128C34.9798 14.4097 34.9777 14.4066 34.9762 14.4041C34.9762 14.4025 34.9746 14.4015 34.9736 14.4C34.9752 14.4015 34.9762 14.4025 34.9767 14.4041ZM34.9317 14.3315C34.9235 14.3177 34.9148 14.3039 34.9056 14.2901C34.9102 14.2967 34.9143 14.3033 34.9189 14.31C34.9235 14.3172 34.9276 14.3243 34.9317 14.3315ZM34.8289 14.1658C34.833 14.172 34.8366 14.1786 34.8402 14.1847C34.8376 14.1807 34.8351 14.1761 34.8325 14.1725C34.83 14.1679 34.8269 14.1633 34.8243 14.1592C34.8259 14.1612 34.8274 14.1638 34.8289 14.1658ZM34.7175 13.993C34.7175 13.993 34.718 13.9941 34.7185 13.9946C34.7221 13.9997 34.7252 14.0048 34.7287 14.0104C34.7247 14.0048 34.7216 13.9997 34.718 13.9946C34.717 13.993 34.716 13.991 34.7149 13.9895C34.7149 13.9905 34.7165 13.992 34.7175 13.993ZM34.6674 13.9169C34.671 13.922 34.674 13.9271 34.6771 13.9322C34.6623 13.9097 34.6475 13.8877 34.6321 13.8657C34.6296 13.8622 34.6275 13.8581 34.625 13.8545C34.6158 13.8402 34.606 13.8259 34.5968 13.8115C34.6209 13.8463 34.6444 13.8816 34.6674 13.9169ZM34.4445 13.5892C34.4445 13.5892 34.4465 13.5922 34.4476 13.5938C34.4476 13.5943 34.4476 13.5948 34.4486 13.5953L34.4471 13.5938C34.4435 13.5886 34.4399 13.5835 34.4363 13.5784C34.4379 13.5805 34.4399 13.583 34.4414 13.5851C34.4425 13.5866 34.4435 13.5876 34.4445 13.5892ZM34.0514 13.0544C34.0432 13.0437 34.0345 13.0329 34.0258 13.0217C34.0171 13.0104 34.0079 12.9987 33.9992 12.9869C34.0176 13.0094 34.0345 13.0319 34.0514 13.0544ZM33.9563 12.9317C33.9563 12.9317 33.9583 12.9343 33.9588 12.9353C33.9578 12.9343 33.9568 12.9332 33.9558 12.9317C33.9547 12.9302 33.9532 12.9281 33.9522 12.9266C33.9537 12.9281 33.9552 12.9302 33.9563 12.9317ZM33.875 12.8289C33.875 12.8289 33.8775 12.832 33.878 12.8335C33.8729 12.8274 33.8683 12.8213 33.8637 12.8151C33.8673 12.8197 33.8714 12.8243 33.875 12.8289ZM33.8504 12.7983C33.8504 12.7983 33.854 12.8024 33.8556 12.8049C33.855 12.8044 33.8545 12.8039 33.8535 12.8029C33.8525 12.8013 33.8515 12.7998 33.8499 12.7983C33.8147 12.7543 33.7789 12.7103 33.7431 12.6664C33.7794 12.7103 33.8152 12.7543 33.8504 12.7983ZM33.6843 12.5953C33.6843 12.5953 33.6848 12.5963 33.6853 12.5968C33.6843 12.5958 33.6838 12.5953 33.6828 12.5943C33.6828 12.5943 33.6822 12.5943 33.6822 12.5933L33.6843 12.5953ZM33.5161 12.3964C33.5187 12.4 33.5217 12.4031 33.5243 12.4062C33.5365 12.4205 33.5488 12.4348 33.5611 12.4491C33.5636 12.4522 33.5667 12.4557 33.5693 12.4588C33.579 12.4701 33.5882 12.4808 33.5974 12.492H33.5979C33.6015 12.4966 33.6056 12.5012 33.6096 12.5058C33.6163 12.514 33.6235 12.5222 33.6296 12.5304C33.6189 12.5176 33.6081 12.5048 33.5974 12.492C33.5882 12.4813 33.5795 12.4711 33.5703 12.4609C33.5662 12.4563 33.5621 12.4511 33.558 12.4465C33.5565 12.4445 33.5544 12.4425 33.5529 12.4404C33.5432 12.4286 33.5335 12.4174 33.5238 12.4062C33.5207 12.4026 33.5181 12.3995 33.5151 12.3964C33.513 12.3944 33.5115 12.3924 33.5105 12.3903C33.5125 12.3924 33.514 12.3944 33.5161 12.3964ZM33.4307 12.2988C33.4369 12.306 33.443 12.3131 33.4491 12.3203C33.3995 12.2635 33.3494 12.2068 33.2988 12.1505C33.3367 12.193 33.3745 12.2349 33.4123 12.2778C33.4184 12.285 33.4246 12.2916 33.4307 12.2988ZM33.2988 12.15C33.1971 12.0376 33.0943 11.9271 32.99 11.8177C33.0948 11.9271 33.1976 12.0376 33.2988 12.15ZM32.6715 11.4946C32.5637 11.3888 32.4543 11.2845 32.3433 11.1812C32.4543 11.284 32.5637 11.3883 32.6715 11.4946ZM32.1756 11.0284C32.0632 10.9271 31.9492 10.828 31.8336 10.7298C31.9492 10.8275 32.0632 10.9271 32.1756 11.0284ZM30.9395 10.0294V10.0299C30.8781 9.98545 30.8163 9.94149 30.7544 9.89752C30.8163 9.94149 30.8781 9.98545 30.9395 10.0294ZM22.2842 11.6955C24.8169 11.7211 27.2458 12.6582 29.1363 14.3427L29.5157 13.9174C27.5198 12.1398 24.9565 11.1516 22.2842 11.126V8.08621C29.848 8.14143 36.0114 14.1939 36.244 21.7158H29.212C29.1057 20.5614 28.5765 19.473 27.7218 18.678L27.1124 19.3339C27.7851 19.9591 28.21 20.8104 28.3122 21.7158H24.0051C23.8318 20.8753 23.1431 20.2235 22.2842 20.1038V11.6955ZM22.2842 33.1853C25.2949 33.1567 28.1926 31.8827 30.2483 29.6788L29.8321 29.2902C27.8838 31.3791 25.138 32.5872 22.2842 32.6158V24.1595C23.2311 24.0276 23.9698 23.249 24.0414 22.2853H28.3342C28.3025 23.1769 27.9615 24.0286 27.3664 24.6963L28.0341 25.2918C28.7759 24.4596 29.1967 23.3972 29.2289 22.2853H36.2502C36.1812 29.9497 29.9523 36.1699 22.2842 36.2262V33.1853ZM22.2842 40.5742V37.1208C30.4461 37.0646 37.0763 30.4436 37.1454 22.2853H40.5988C40.5292 32.3474 32.3505 40.518 22.2842 40.5742Z" fill="black"/>
</g>
</svg>
