<svg width="63" height="63" viewBox="0 0 63 63" fill="none" xmlns="http://www.w3.org/2000/svg">
<g id="Vector">
<path d="M42.3833 13.1218C48.4347 16.5914 52.6393 22.9283 53.1356 30.2666C52.6401 22.9283 48.4347 16.5914 42.3833 13.1218Z" fill="white"/>
<path d="M53.1773 31.093H58.1242C58.0715 28.8736 57.7435 26.7215 57.1733 24.669C57.7435 26.7215 58.0715 28.8736 58.1242 31.0923H53.1773V31.093Z" fill="white"/>
<path d="M5.38749 31.9085C5.48558 46.1436 16.9179 57.7355 31.0915 58.089C16.9172 57.7347 5.48558 46.1429 5.38749 31.9085Z" fill="white"/>
<path d="M38.9093 6.33836C42.9206 7.47002 46.5469 9.5284 49.5415 12.2675C46.5469 9.5284 42.9206 7.46929 38.9093 6.33836Z" fill="white"/>
<path d="M31.9077 5.35236H31.907V10.297H31.9077V5.35236Z" fill="white"/>
<path d="M58.9396 31.093C58.7808 24.0666 55.9699 17.4845 50.9835 12.4981C45.883 7.39902 39.1135 4.57498 31.907 4.53691V0H31.0915V4.54277C24.0798 4.7104 17.5115 7.5198 12.5332 12.4981C7.54688 17.4845 4.73602 24.0666 4.57791 31.093H0V31.9085H4.57205C4.61963 39.1018 7.44221 45.8574 12.5332 50.9491C17.5115 55.9267 24.0798 58.7369 31.0915 58.9045V63H31.907V58.9103C39.1135 58.8715 45.883 56.0497 50.9835 50.9491C56.0753 45.8574 58.8972 39.1018 58.9455 31.9085H63V31.093H58.9396ZM6.07191 37.7088C6.07337 37.7168 6.07557 37.7256 6.07777 37.7329H6.07703C6.07557 37.7249 6.07337 37.7161 6.07191 37.7088ZM6.85588 40.4077C6.86466 40.4326 6.87345 40.4574 6.88223 40.4823H6.8815C6.87271 40.4574 6.86393 40.4326 6.85588 40.4077ZM6.90126 40.5387C6.90126 40.5387 6.89907 40.5328 6.89833 40.5299C6.8998 40.5328 6.90053 40.5358 6.90199 40.5387C6.91078 40.5658 6.92103 40.5921 6.93054 40.6185C6.92103 40.5921 6.91078 40.5658 6.90126 40.5387ZM7.12745 41.1499C7.12379 41.1404 7.12013 41.1301 7.11647 41.1206C7.12086 41.1301 7.12452 41.1404 7.12818 41.1499C7.156 41.2238 7.18454 41.2978 7.21382 41.371C7.18528 41.2978 7.15673 41.2238 7.12818 41.1499H7.12745ZM20.8224 55.7218C20.7682 55.6961 20.7133 55.6713 20.6584 55.6456C20.6555 55.6442 20.6525 55.6427 20.6496 55.6412C20.646 55.6398 20.6423 55.6376 20.6386 55.6354C20.7726 55.6983 20.908 55.7606 21.0442 55.8206C21.0178 55.8089 20.9922 55.7979 20.9658 55.7862C20.9175 55.7649 20.8699 55.743 20.8224 55.7218ZM21.5427 56.038C21.5375 56.0358 21.5331 56.0343 21.5287 56.0321C21.5258 56.0307 21.5236 56.0299 21.5214 56.0285C21.5287 56.0314 21.5353 56.0343 21.5427 56.0373C21.5456 56.038 21.5485 56.0394 21.5507 56.0409C21.5485 56.0409 21.5456 56.0387 21.5427 56.038ZM21.7623 56.1287C21.7579 56.1273 21.7542 56.1251 21.7498 56.1229C21.7498 56.1229 21.7513 56.1229 21.752 56.1236C21.7732 56.1331 21.7945 56.1419 21.8164 56.1507C21.8032 56.1456 21.7893 56.1397 21.7754 56.1346C21.771 56.1324 21.7666 56.1309 21.7623 56.1287ZM22.2739 56.333C22.4701 56.4084 22.667 56.4823 22.8654 56.554C22.667 56.483 22.4701 56.4091 22.2739 56.333ZM24.5856 57.106C24.5175 57.0869 24.4501 57.0672 24.3821 57.0474C24.3674 57.043 24.3521 57.0386 24.3367 57.0342C24.2591 57.0115 24.1815 56.9881 24.1039 56.9647C24.0168 56.9376 23.9297 56.9105 23.8426 56.8834H23.8419C23.918 56.9069 23.9941 56.9303 24.0702 56.9537C24.1588 56.9808 24.2481 57.0071 24.3367 57.0335C24.3491 57.0372 24.3616 57.0408 24.3747 57.0445C24.4443 57.065 24.5146 57.0855 24.5848 57.1052C24.5878 57.106 24.5914 57.1074 24.5951 57.1082C24.5973 57.1089 24.5995 57.1096 24.6017 57.1104C24.5965 57.1089 24.5907 57.1074 24.5856 57.106ZM25.0862 57.2421C25.0862 57.2421 25.0804 57.2407 25.0775 57.2392C25.0797 57.2399 25.0826 57.2407 25.0855 57.2414C25.0906 57.2428 25.095 57.2436 25.1002 57.245C25.095 57.245 25.0906 57.2436 25.0862 57.2421ZM25.3381 57.3065C25.3249 57.3036 25.3117 57.2999 25.2985 57.2963C25.3117 57.2992 25.3241 57.3029 25.3373 57.3058C25.3922 57.3197 25.4471 57.3336 25.502 57.3468C25.4471 57.3336 25.3922 57.3204 25.3381 57.3065ZM26.032 57.4705C26.0239 57.469 26.0166 57.4668 26.0086 57.4654C25.9793 57.4595 25.9507 57.4529 25.9222 57.4456C25.8958 57.4405 25.8702 57.4346 25.8439 57.428C25.7912 57.4163 25.7385 57.4032 25.6858 57.3907C25.7128 57.3966 25.7399 57.4032 25.767 57.409C25.819 57.4215 25.8709 57.4339 25.9222 57.4456C25.9749 57.4581 26.0276 57.4698 26.0803 57.4807C26.0642 57.4778 26.0481 57.4742 26.032 57.4705ZM26.2355 57.5151C26.2355 57.5151 26.2391 57.5152 26.2406 57.5159C26.2391 57.5159 26.2369 57.5159 26.2355 57.5151ZM26.4141 57.5518C26.4141 57.5518 26.4148 57.5518 26.4156 57.5525C26.4156 57.5525 26.4141 57.5525 26.4134 57.5518H26.4141ZM26.6066 57.592H26.6051C26.5964 57.5905 26.5868 57.5884 26.5773 57.5862C26.5685 57.5847 26.559 57.5825 26.5502 57.5803C26.5641 57.5825 26.5781 57.5854 26.592 57.5883C26.6417 57.5986 26.6915 57.6074 26.7406 57.6176C26.6959 57.6088 26.6513 57.6008 26.6066 57.592ZM27.4689 57.7487C27.4689 57.7487 27.4652 57.7479 27.4638 57.7479C27.4594 57.7472 27.4543 57.7465 27.4499 57.7457C27.4455 57.7457 27.4418 57.7443 27.4374 57.7435C27.4199 57.7406 27.4016 57.7369 27.384 57.734L27.4133 57.7384H27.4184L27.4418 57.7428L27.4806 57.7494C27.4879 57.7509 27.496 57.7523 27.504 57.7538C27.4982 57.753 27.4923 57.7523 27.4865 57.7516C27.4806 57.7509 27.4748 57.7501 27.4689 57.7487ZM29.1393 57.9683C29.0778 57.9624 29.0163 57.9558 28.9548 57.9492C28.93 57.9463 28.9051 57.9441 28.8809 57.9412C28.8765 57.9404 28.8714 57.9404 28.867 57.9397C28.8626 57.9397 28.859 57.9397 28.8546 57.9382C28.8341 57.9361 28.8128 57.9331 28.7923 57.9309C28.7814 57.9295 28.7697 57.9287 28.7587 57.9273H28.755C28.755 57.9273 28.7506 57.9265 28.7484 57.9265C28.7462 57.9265 28.7448 57.9265 28.7426 57.9265C28.7287 57.9251 28.7162 57.9236 28.7023 57.9214C28.7118 57.9214 28.7213 57.9236 28.7309 57.9243C28.7353 57.9243 28.7404 57.9243 28.7448 57.9258C28.7609 57.928 28.7762 57.9302 28.7923 57.9317C28.818 57.9346 28.8443 57.9375 28.8699 57.9397C28.878 57.9397 28.8853 57.9419 28.8926 57.9419C28.9021 57.9434 28.9109 57.9441 28.9204 57.9456C28.9314 57.947 28.9431 57.9478 28.9541 57.9492C28.9951 57.9536 29.0354 57.958 29.0756 57.9617C29.0961 57.9639 29.1166 57.9661 29.1364 57.9675C29.1496 57.969 29.1635 57.9705 29.1774 57.9719C29.1913 57.9734 29.2052 57.9748 29.2191 57.9763C29.192 57.9741 29.1657 57.9719 29.1393 57.969V57.9683ZM29.771 58.0232C29.6751 58.0158 29.58 58.0085 29.4848 58.0005C29.4731 57.999 29.4614 57.9983 29.4504 57.9975C29.4497 57.9975 29.4482 57.9975 29.4475 57.9975H29.4438L29.446 57.9968H29.4475L29.4497 57.9975C29.4614 57.9975 29.4724 57.999 29.4841 58.0005C29.5727 58.0078 29.6612 58.0151 29.7505 58.0217C29.7571 58.0224 29.7637 58.0232 29.771 58.0232C29.8069 58.0261 29.8435 58.029 29.8801 58.0312C29.8435 58.029 29.8076 58.0268 29.771 58.0239V58.0232ZM30.1334 58.048C30.1165 58.0466 30.0997 58.0458 30.0829 58.0444C30.0675 58.0429 30.0521 58.0422 30.0367 58.0415C30.047 58.0415 30.0565 58.0422 30.0668 58.0429C30.0719 58.0429 30.0777 58.0437 30.0829 58.0437C30.0997 58.0451 30.1165 58.0458 30.1334 58.0473C30.1575 58.0488 30.1824 58.0502 30.2073 58.0517C30.1824 58.051 30.1575 58.0495 30.1334 58.048ZM31.0915 58.089C30.9115 58.0846 30.7321 58.0781 30.5528 58.07C30.5272 58.0693 30.5008 58.0678 30.4752 58.0663C30.4481 58.0649 30.4203 58.0641 30.3932 58.062C30.3793 58.0612 30.3639 58.0605 30.35 58.059H30.3544C30.3588 58.0598 30.3632 58.0598 30.3683 58.0598C30.3764 58.0605 30.3852 58.0612 30.3932 58.0612C30.4262 58.0627 30.4591 58.0649 30.4913 58.0663C30.5118 58.0678 30.5323 58.0685 30.5528 58.0693C30.7321 58.0773 30.9115 58.0839 31.0915 58.0883V58.089ZM31.0915 46.6867C27.4147 46.5264 23.9634 45.039 21.3121 42.4573L20.744 43.0421C23.5483 45.7725 27.201 47.3411 31.0915 47.5022V51.8583C20.351 51.5077 11.7112 42.7105 11.6131 31.9085H20.392C20.4388 33.5005 21.0405 35.0216 22.1034 36.2133L23.0593 35.3605C22.2066 34.4046 21.7191 33.1851 21.6729 31.9085H28.5771C28.6796 33.2883 29.7374 34.4031 31.0915 34.592V46.6867ZM31.0915 15.9451C26.9587 16.1215 23.0162 17.931 20.1885 20.971L20.7858 21.5265C23.4598 18.6505 27.1849 16.9369 31.0915 16.7613V28.785C29.8625 28.9563 28.8773 29.8896 28.6284 31.093H21.7044C21.8516 29.7966 22.4598 28.5779 23.4224 27.6826L22.5506 26.7435C21.326 27.8817 20.5691 29.4402 20.4161 31.093H11.6226C11.9498 20.4959 20.5003 11.9345 31.0915 11.5882V15.9451ZM31.0915 10.3058C19.7932 10.6535 10.6681 19.7888 10.3402 31.093H5.39335C5.72421 17.0621 17.0665 5.70884 31.0915 5.35895V10.3058ZM53.1773 31.0923H58.1242L53.1773 31.093V31.0923ZM52.6386 26.906C52.5376 26.4697 52.4241 26.0386 52.2975 25.6133C52.4241 26.0386 52.5383 26.4705 52.6386 26.906ZM50.6 21.5273C50.6066 21.5397 50.6132 21.5514 50.619 21.5631C50.6219 21.5683 50.6249 21.5741 50.6271 21.5793C50.6183 21.5617 50.6088 21.5448 50.5993 21.5273C50.5963 21.5229 50.5934 21.5178 50.5912 21.5126C50.5941 21.5178 50.5971 21.5229 50.6 21.5273ZM50.4953 21.3377C50.4953 21.3377 50.4902 21.3296 50.488 21.326C50.4843 21.3194 50.4807 21.3128 50.477 21.3062C50.4829 21.3157 50.4887 21.3253 50.4938 21.3348C50.4938 21.3355 50.4938 21.3362 50.4953 21.3377ZM50.4316 21.2235C50.4382 21.2352 50.4448 21.2469 50.4514 21.2586C50.4433 21.2469 50.4367 21.2352 50.4309 21.2235C50.4302 21.222 50.4287 21.2206 50.4287 21.2191C50.4302 21.2206 50.4309 21.222 50.4316 21.2235ZM50.3123 21.0156C50.3123 21.0156 50.3152 21.0215 50.3167 21.0244C50.3101 21.0127 50.3035 21.0017 50.2969 20.99C50.3028 20.9988 50.3079 21.0076 50.3123 21.0156ZM50.1681 20.7704C50.1527 20.7455 50.1374 20.7206 50.122 20.6957C50.1198 20.6921 50.1176 20.6884 50.1161 20.6848C50.1344 20.7133 50.1513 20.7418 50.1681 20.7704ZM50.0803 20.624C50.0803 20.624 50.0847 20.6321 50.0876 20.6364C50.0883 20.6379 50.089 20.6394 50.0898 20.6408C50.089 20.6394 50.0876 20.6379 50.0869 20.6364C50.0847 20.6321 50.0817 20.6277 50.0795 20.624C50.0795 20.6218 50.0773 20.6203 50.0759 20.6181C50.0781 20.6203 50.0795 20.6218 50.0803 20.624ZM50.0159 20.5201C50.0041 20.5003 49.9917 20.4805 49.9785 20.4608C49.9851 20.4703 49.991 20.4798 49.9976 20.4893C50.0041 20.4996 50.01 20.5098 50.0159 20.5201ZM49.8687 20.2829C49.8746 20.2917 49.8797 20.3012 49.8848 20.31C49.8812 20.3041 49.8775 20.2975 49.8738 20.2924C49.8702 20.2858 49.8658 20.2792 49.8621 20.2734C49.8643 20.2763 49.8665 20.28 49.8687 20.2829ZM49.7091 20.0355C49.7091 20.0355 49.7099 20.0369 49.7106 20.0377C49.7157 20.045 49.7201 20.0523 49.7252 20.0604C49.7194 20.0523 49.715 20.045 49.7099 20.0377C49.7084 20.0355 49.7069 20.0325 49.7055 20.0303C49.7055 20.0318 49.7077 20.034 49.7091 20.0355ZM49.6374 19.9264C49.6425 19.9337 49.6469 19.941 49.6513 19.9484C49.6301 19.9162 49.6089 19.8847 49.5869 19.8532C49.5832 19.8481 49.5803 19.8422 49.5767 19.8371C49.5635 19.8166 49.5496 19.7961 49.5364 19.7756C49.5708 19.8254 49.6045 19.8759 49.6374 19.9264ZM49.3183 19.4572C49.3183 19.4572 49.3212 19.4616 49.3226 19.4638C49.3226 19.4645 49.3226 19.4652 49.3241 19.466L49.3219 19.4638C49.3168 19.4565 49.3117 19.4491 49.3065 19.4418C49.3087 19.4448 49.3117 19.4484 49.3139 19.4513C49.3153 19.4535 49.3168 19.455 49.3183 19.4572ZM48.7554 18.6915C48.7436 18.6762 48.7312 18.6608 48.7188 18.6447C48.7063 18.6286 48.6931 18.6117 48.6807 18.5949C48.707 18.6271 48.7312 18.6593 48.7554 18.6915ZM48.6192 18.5158C48.6192 18.5158 48.6221 18.5195 48.6229 18.521C48.6214 18.5195 48.6199 18.518 48.6185 18.5158C48.617 18.5137 48.6148 18.5107 48.6133 18.5085C48.6155 18.5107 48.6177 18.5137 48.6192 18.5158ZM48.5028 18.3687C48.5028 18.3687 48.5065 18.3731 48.5072 18.3753C48.4999 18.3665 48.4933 18.3577 48.4867 18.349C48.4918 18.3555 48.4977 18.3621 48.5028 18.3687ZM48.4677 18.3248C48.4677 18.3248 48.4728 18.3307 48.475 18.3343C48.4743 18.3336 48.4735 18.3328 48.4721 18.3314C48.4706 18.3292 48.4691 18.327 48.4669 18.3248C48.4164 18.2618 48.3652 18.1989 48.314 18.1359C48.3659 18.1989 48.4172 18.2618 48.4677 18.3248ZM48.2298 18.0342C48.2298 18.0342 48.2305 18.0357 48.2312 18.0364C48.2298 18.0349 48.229 18.0342 48.2276 18.0327C48.2276 18.0327 48.2269 18.0327 48.2269 18.0313L48.2298 18.0342ZM47.989 17.7494C47.9926 17.7546 47.997 17.759 48.0007 17.7634C48.0182 17.7839 48.0358 17.8043 48.0534 17.8248C48.057 17.8292 48.0614 17.8344 48.0651 17.8388C48.079 17.8549 48.0922 17.8702 48.1053 17.8863H48.1061C48.1112 17.8929 48.1171 17.8995 48.1229 17.9061C48.1324 17.9178 48.1427 17.9295 48.1515 17.9412C48.1361 17.9229 48.1207 17.9046 48.1053 17.8863C48.0922 17.871 48.0797 17.8563 48.0665 17.8417C48.0607 17.8351 48.0548 17.8278 48.049 17.8212C48.0468 17.8183 48.0438 17.8153 48.0417 17.8124C48.0277 17.7956 48.0138 17.7795 47.9999 17.7634C47.9955 17.7582 47.9919 17.7538 47.9875 17.7494C47.9846 17.7465 47.9824 17.7436 47.9809 17.7407C47.9838 17.7436 47.986 17.7465 47.989 17.7494ZM47.8667 17.6096C47.8755 17.6199 47.8843 17.6301 47.8931 17.6404C47.8221 17.5591 47.7503 17.4779 47.6779 17.3974C47.732 17.4581 47.7862 17.5181 47.8404 17.5796C47.8491 17.5899 47.8579 17.5994 47.8667 17.6096ZM47.6779 17.3966C47.5322 17.2356 47.3851 17.0775 47.2357 16.9208C47.3858 17.0775 47.5329 17.2356 47.6779 17.3966ZM46.7797 16.4582C46.6252 16.3067 46.4686 16.1574 46.3098 16.0095C46.4686 16.1566 46.6252 16.306 46.7797 16.4582ZM46.0697 15.7906C45.9086 15.6457 45.7454 15.5037 45.5799 15.3631C45.7454 15.503 45.9086 15.6457 46.0697 15.7906ZM44.2997 14.3603V14.361C44.2118 14.2974 44.1233 14.2344 44.0347 14.1715C44.1233 14.2344 44.2118 14.2974 44.2997 14.3603ZM31.907 16.7459C35.5333 16.7825 39.011 18.1242 41.7179 20.5362L42.2611 19.9271C39.4034 17.382 35.7331 15.967 31.907 15.9304V11.578C42.7369 11.657 51.5618 20.3231 51.8949 31.093H41.8263C41.674 29.4402 40.9164 27.8817 39.6925 26.7435L38.82 27.6826C39.7833 28.5779 40.3916 29.7966 40.538 31.093H34.3709C34.1227 29.8896 33.1367 28.9563 31.907 28.785V16.7459ZM31.907 47.5153C36.2177 47.4744 40.3667 45.6502 43.31 42.4946L42.7142 41.9383C39.9245 44.9292 35.993 46.6589 31.907 46.6999V34.592C33.2626 34.4031 34.3204 33.2883 34.4229 31.9085H40.5694C40.524 33.1851 40.0358 34.4046 39.1838 35.3605L40.1398 36.2133C41.2019 35.0216 41.8043 33.5005 41.8504 31.9085H51.9037C51.8048 42.8825 42.8862 51.7887 31.907 51.8693V47.5153ZM31.907 58.0949V53.1503C43.5933 53.0697 53.0866 43.5897 53.1854 31.9085H58.13C58.0305 46.3156 46.32 58.0144 31.907 58.0949Z" fill="white"/>
</g>
</svg>
